<?xml version="1.0" standalone="no"?>
<!DOCTYPE svg PUBLIC "-//W3C//DTD SVG 20010904//EN"
 "http://www.w3.org/TR/2001/REC-SVG-20010904/DTD/svg10.dtd">
<svg version="1.0" xmlns="http://www.w3.org/2000/svg"
 width="735.000000pt" height="459.000000pt" viewBox="0 0 735.000000 459.000000"
 preserveAspectRatio="xMidYMid meet">

<g transform="translate(0.000000,459.000000) scale(0.100000,-0.100000)"
fill="#000000" stroke="none">
<path d="M6 4578 c22 -37 74 -106 104 -137 8 -9 46 -52 84 -96 38 -44 99 -111
134 -150 36 -38 72 -81 80 -94 15 -22 14 -24 -4 -37 -52 -37 -74 -57 -74 -70
0 -7 -5 -16 -12 -20 -8 -5 -9 -2 -5 10 4 10 3 15 -3 11 -5 -3 -37 10 -70 29
-34 20 -63 36 -66 36 -7 0 -76 50 -89 65 -5 6 -27 21 -48 33 l-37 21 0 -193 0
-192 89 -27 c50 -15 97 -27 105 -27 20 0 20 0 -1 -40 -9 -18 -17 -53 -17 -77
l-1 -44 -87 -27 -88 -27 0 -112 c0 -62 4 -113 9 -113 5 0 26 14 47 30 61 48
134 100 139 100 3 0 5 -16 5 -36 0 -26 -3 -33 -12 -27 -24 14 -33 11 -34 -13
-1 -13 2 -24 8 -24 5 0 22 -15 39 -32 16 -18 29 -27 29 -21 0 7 18 0 40 -14
l40 -26 -33 -20 c-33 -20 -75 -54 -139 -113 -20 -18 -60 -50 -88 -70 l-50 -36
0 -144 c0 -79 3 -144 8 -144 4 1 41 41 82 90 72 87 95 106 69 58 -7 -12 -14
-25 -15 -28 -5 -21 -18 -39 -24 -35 -15 9 -23 -17 -9 -27 10 -7 8 -8 -8 -3
-12 3 -25 1 -29 -6 -5 -8 -3 -9 6 -4 9 5 11 4 6 -4 -14 -23 25 -24 42 -1 9 12
24 29 33 37 55 51 70 62 89 68 11 3 20 13 20 21 0 8 5 14 10 14 13 0 13 -16 0
-41 -8 -14 -7 -19 1 -19 6 0 -3 -16 -20 -35 -17 -20 -31 -38 -31 -41 0 -8 45
19 57 35 11 14 12 13 13 -6 0 -13 -4 -23 -9 -23 -5 0 -7 -9 -4 -20 3 -11 9
-20 13 -20 9 0 20 50 20 91 0 19 6 30 21 34 21 7 39 42 39 76 0 12 -4 17 -11
14 -6 -4 -8 -13 -5 -21 3 -8 2 -14 -2 -15 -4 0 -15 -2 -24 -4 -10 -2 -18 -3
-18 -2 2 18 29 78 41 89 19 19 42 8 33 -15 -3 -10 -1 -17 5 -17 16 0 14 27 -5
55 -9 14 -12 25 -7 25 5 0 15 11 21 25 9 20 9 25 -3 25 -8 0 -12 -6 -9 -14 3
-7 -2 -16 -10 -19 -20 -8 -20 -3 -1 33 8 16 12 36 9 44 -4 10 1 18 12 23 10 4
19 2 22 -5 2 -7 19 -12 38 -12 33 0 33 -1 17 -19 -28 -31 -37 -44 -51 -74 -17
-39 -15 -47 9 -47 l21 0 -22 -35 c-12 -19 -18 -40 -14 -47 5 -8 2 -9 -9 -5
-20 8 -22 -3 -4 -27 11 -16 14 -15 36 14 12 17 20 34 17 37 -3 3 1 20 8 37 16
38 11 62 -10 45 -23 -19 -17 25 6 46 12 11 18 25 15 34 -4 11 0 10 15 -4 16
-15 19 -26 14 -49 -3 -17 -10 -35 -14 -41 -4 -5 -10 -28 -14 -50 -5 -31 -4
-37 5 -25 9 12 10 11 4 -5 -14 -40 -18 -135 -6 -135 19 0 12 -27 -9 -33 -17
-4 -20 -14 -20 -54 0 -27 -5 -75 -11 -106 -11 -54 -12 -56 -32 -42 -18 13 -22
12 -34 -3 -13 -15 -14 -14 -9 16 4 21 2 32 -7 32 -9 0 -9 2 0 8 6 4 13 23 15
42 2 29 0 35 -15 34 -14 -2 -16 3 -11 20 9 29 24 47 35 40 5 -3 9 2 9 10 0 17
-18 21 -35 8 -5 -4 -18 -24 -27 -44 -10 -21 -23 -38 -30 -38 -6 0 -3 -7 8 -15
19 -14 18 -14 -3 -15 -13 0 -23 -4 -23 -10 0 -5 7 -10 15 -10 18 0 18 -5 4
-32 -8 -14 -8 -23 0 -31 15 -15 14 -27 -2 -21 -15 5 -49 -69 -41 -90 3 -8 -3
-12 -18 -11 -20 2 -23 7 -22 41 l2 38 -19 -34 c-10 -19 -18 -41 -19 -47 0 -7
-9 -27 -20 -45 -17 -29 -19 -29 -16 -7 3 22 8 36 38 107 6 15 10 33 9 39 -3
22 18 87 41 123 23 36 34 100 17 100 -13 0 -49 -37 -50 -52 -1 -7 -1 -18 0
-25 1 -6 -3 -14 -9 -18 -5 -3 -10 -15 -10 -26 0 -10 -6 -19 -14 -19 -17 0 -96
-87 -96 -106 0 -8 -4 -14 -10 -14 -5 0 -10 -6 -10 -13 0 -7 -14 -29 -30 -49
l-31 -37 3 -703 3 -703 25 2 c22 2 23 1 7 -8 -9 -5 -22 -7 -27 -4 -6 4 -9 -95
-9 -277 1 -201 4 -285 13 -290 8 -6 8 -8 -1 -8 -10 0 -13 -47 -13 -200 l0
-201 68 3 67 3 3 56 c2 30 -6 96 -18 147 -30 135 -27 178 21 312 65 182 69
209 62 425 l-6 190 32 80 c18 44 45 142 61 219 47 226 128 359 257 422 48 24
67 27 166 28 110 1 113 0 176 -34 126 -68 213 -204 276 -435 9 -33 37 -96 61
-141 30 -55 51 -113 69 -188 14 -59 32 -121 40 -136 10 -20 15 -60 15 -126 0
-88 -2 -95 -17 -89 -10 5 -43 13 -75 18 -81 15 -93 41 -102 212 -4 72 -13 166
-22 210 -8 44 -17 100 -20 125 -9 77 -14 90 -37 99 -19 7 -28 26 -45 90 -12
45 -37 106 -56 135 -40 63 -109 109 -153 104 -26 -4 -25 -5 15 -16 86 -26 153
-115 182 -242 7 -30 17 -60 22 -66 9 -12 0 -91 -11 -99 -4 -2 -7 13 -8 33 -1
37 -18 57 -106 125 -20 15 -52 51 -70 80 -41 63 -64 84 -97 88 -30 4 -92 -20
-84 -32 3 -5 13 -5 24 1 25 13 33 13 24 -2 -4 -7 -4 -10 1 -6 4 4 15 2 23 -5
13 -10 14 -9 7 2 -5 9 -4 12 3 7 7 -4 9 -22 6 -46 -5 -36 -3 -41 19 -49 23 -9
25 -14 20 -50 -5 -36 -3 -41 21 -52 29 -14 50 -3 23 12 -18 10 -24 39 -8 39 5
0 11 9 14 20 5 21 0 28 -37 54 -15 10 -17 17 -9 31 10 16 13 14 36 -21 13 -21
36 -50 50 -63 15 -13 24 -27 22 -31 -3 -4 3 -14 12 -21 12 -10 14 -10 9 -2
-13 23 10 13 41 -17 23 -23 32 -41 35 -77 6 -60 -14 -207 -26 -196 -5 5 -6 2
-2 -5 14 -23 -42 -157 -86 -207 -37 -41 -69 -62 -52 -32 4 7 3 9 -2 4 -5 -5
-9 -14 -9 -20 0 -21 -86 -57 -138 -57 -54 0 -73 8 -137 58 -137 108 -150 132
-120 212 l21 57 47 -4 c47 -4 95 12 95 32 0 17 -48 34 -100 36 -34 1 -50 6
-50 15 0 9 8 12 26 7 35 -8 31 -8 79 1 32 6 42 12 42 27 0 33 -81 52 -141 33
-11 -3 -18 3 -22 17 -6 21 -4 22 54 15 33 -3 69 -11 81 -17 12 -6 18 -7 14 -1
-3 5 2 13 11 16 15 6 15 8 0 23 -11 11 -41 18 -98 21 l-81 5 4 69 c4 56 10 72
27 84 11 8 21 20 21 26 0 7 -7 3 -15 -8 -8 -10 -15 -14 -15 -8 0 6 7 17 15 24
26 21 31 -17 6 -44 -26 -28 -26 -37 -1 -69 17 -22 18 -26 5 -37 -24 -20 -6
-31 21 -14 26 18 31 44 12 73 -10 17 -8 23 12 39 23 18 24 22 10 47 -29 55 20
80 89 46 26 -14 39 -17 35 -8 -4 12 -50 39 -87 51 -30 10 -80 -18 -110 -61
-52 -76 -59 -144 -27 -283 26 -114 25 -152 -10 -240 -30 -76 -38 -130 -20
-130 6 0 10 16 10 36 l0 37 78 -74 c72 -69 77 -77 83 -124 9 -78 -9 -220 -43
-338 -25 -92 -29 -119 -24 -175 3 -37 9 -115 12 -175 l7 -107 246 1 c240 1
245 1 196 17 -38 12 -94 16 -237 16 -104 0 -188 3 -188 6 0 4 55 10 123 14
130 7 208 0 351 -34 86 -20 116 -20 1292 -20 777 0 1204 4 1204 10 0 6 -14 10
-30 10 -52 0 -86 25 -113 82 -13 29 -27 66 -31 82 l-7 30 20 -25 21 -24 -15
37 c-8 21 -15 48 -15 60 1 21 2 20 16 -7 37 -69 66 -116 70 -112 3 3 -9 32
-26 66 -17 34 -30 69 -28 79 2 11 13 -2 32 -38 15 -30 38 -68 51 -85 12 -16
25 -37 29 -45 3 -8 4 -1 1 15 -4 17 -22 56 -42 88 -19 32 -33 61 -30 63 3 3
22 -17 43 -43 49 -62 62 -75 41 -41 -16 26 -24 79 -10 64 11 -10 33 -76 47
-137 9 -44 9 -62 -1 -86 -11 -27 -10 -31 6 -36 10 -2 180 -5 379 -6 l362 -2
31 23 c18 13 70 43 117 68 48 25 88 52 91 60 3 12 -1 11 -20 -3 -35 -25 -70
-43 -99 -52 -20 -6 -19 -3 10 17 71 49 150 87 150 72 0 -21 10 -18 70 21 30
19 57 35 61 35 9 0 -5 -60 -21 -90 -7 -14 -14 -36 -15 -50 -2 -14 -6 -42 -10
-62 -7 -34 -5 -38 12 -38 16 0 22 11 32 66 18 97 77 266 128 367 25 48 43 90
41 93 -8 7 -62 -68 -82 -113 -21 -48 -50 -61 -71 -30 -8 11 -22 22 -31 23 -54
8 -158 117 -213 224 -22 42 -45 74 -52 72 -10 -2 -10 0 1 12 10 14 10 16 -6
16 -19 0 -114 80 -114 96 -1 5 -21 29 -45 54 -24 24 -43 45 -41 47 1 1 34 -6
72 -17 76 -22 130 -27 104 -10 -11 7 -5 8 20 3 19 -3 37 -10 40 -14 14 -21
357 -68 344 -48 -2 4 10 9 27 13 43 8 51 8 44 -4 -4 -6 2 -7 17 -2 36 13 99 7
109 -10 5 -9 20 -19 34 -22 31 -8 33 -36 4 -62 -35 -31 -149 -194 -137 -194 3
0 20 21 38 47 54 77 133 160 201 213 79 62 66 52 174 134 128 97 127 98 -7 14
-43 -26 -78 -44 -78 -40 0 5 11 14 25 20 28 13 34 32 9 32 -9 0 -12 5 -8 13 5
8 3 8 -9 -2 -9 -7 -14 -18 -11 -23 11 -17 -18 -27 -34 -12 -10 10 -15 43 -18
102 -3 83 -2 90 33 162 34 71 36 81 41 203 l5 127 96 0 c80 0 100 -4 121 -20
14 -11 30 -20 36 -20 6 0 23 -9 38 -21 36 -28 33 -13 -5 22 -17 16 -27 29 -23
29 11 -1 94 -74 94 -82 0 -4 17 -33 39 -65 36 -54 61 -82 111 -126 35 -30 21
-49 -60 -77 -93 -33 -149 -62 -174 -89 -14 -16 -4 -13 50 14 75 38 192 80 200
72 3 -3 5 -271 4 -596 l0 -591 800 0 800 0 -3 608 c-1 334 -5 616 -9 627 -4
11 -19 49 -34 85 -26 61 -28 78 -35 290 -12 317 -17 367 -37 372 -9 3 -235 5
-502 5 -267 1 -467 -2 -445 -7 l40 -7 -38 -2 c-26 -1 -56 -13 -95 -40 -70 -48
-82 -62 -113 -131 -21 -49 -24 -69 -24 -185 0 -117 2 -134 22 -168 28 -47 30
-63 3 -22 -31 47 -42 102 -42 206 1 78 6 109 27 165 29 78 46 99 123 151 l55
38 -33 3 c-18 2 -36 0 -39 -5 -3 -4 -23 -21 -45 -37 -21 -16 -51 -49 -67 -74
-16 -25 -29 -40 -29 -33 0 7 12 29 28 49 24 33 38 47 91 90 13 10 -7 12 -107
10 l-122 -3 0 93 0 92 708 0 707 0 -3 -287 c-2 -159 1 -328 6 -378 6 -59 10
327 11 1132 1 969 -2 1222 -11 1226 -10 4 -10 6 0 6 9 1 12 80 12 361 l0 360
-670 -2 -670 -2 0 -80 c-5 -808 0 -1349 12 -1376 7 -17 16 -30 21 -30 4 0 11
-10 16 -22 9 -26 -11 -53 -34 -45 -17 7 -22 -7 -17 -45 5 -32 21 -37 29 -8 6
23 8 24 35 9 15 -8 19 -8 13 0 -4 8 2 10 21 7 15 -3 36 -1 48 5 21 10 21 10 1
-6 -11 -9 -26 -20 -33 -24 -19 -11 -4 -41 16 -33 15 5 15 4 3 -11 -12 -15 -11
-17 13 -15 21 2 25 6 21 23 -5 18 -5 18 5 3 6 -10 8 -29 4 -44 -5 -20 -9 -23
-15 -12 -5 9 -20 14 -41 12 -50 -4 -68 4 -68 32 0 13 -4 24 -10 24 -5 0 -10
-6 -10 -14 0 -8 -8 -17 -17 -20 -15 -5 -18 -18 -17 -83 1 -100 2 -105 14 -98
6 3 10 0 10 -7 0 -9 3 -9 10 2 5 8 10 10 10 4 0 -17 61 -74 80 -74 29 0 29 22
-1 47 -30 26 -48 31 -29 8 7 -9 8 -15 2 -15 -5 0 -18 12 -27 28 -10 15 -14 24
-10 20 5 -4 15 -2 24 4 9 7 13 9 9 4 -4 -4 6 -19 21 -32 34 -28 41 -30 41 -9
0 8 -5 15 -12 15 -6 0 -9 2 -7 4 2 3 20 1 39 -4 19 -4 26 -8 15 -9 -14 -1 -16
-4 -7 -9 7 -5 13 -27 15 -49 2 -38 3 -40 26 -31 13 4 26 6 29 3 3 -3 0 -5 -6
-5 -6 0 -17 -6 -24 -14 -19 -18 -81 -9 -74 11 3 8 1 11 -4 8 -6 -3 -10 0 -10
7 0 10 -2 10 -8 0 -7 -10 -15 -9 -41 4 -17 9 -37 17 -44 18 -7 1 -18 5 -26 10
-8 5 -16 4 -21 -4 -4 -6 -18 -10 -31 -9 -13 2 -29 0 -35 -4 -9 -5 -12 44 -13
180 -1 103 -4 189 -7 192 -2 2 -119 4 -259 3 -153 0 -255 3 -255 8 0 11 33 52
69 87 33 32 111 53 197 53 63 0 76 3 103 26 40 33 54 88 46 170 -6 51 -4 69
10 90 15 23 15 28 1 49 -10 15 -12 26 -6 30 7 4 8 31 4 71 l-7 64 31 0 c18 0
50 7 72 16 70 28 79 79 25 144 -45 54 -95 161 -130 275 -69 227 -89 268 -161
335 -60 55 -107 74 -234 95 -182 30 -419 1 -556 -68 -96 -48 -181 -136 -235
-243 -24 -46 -43 -84 -44 -84 -1 0 0 37 3 83 2 45 -1 93 -6 107 -10 23 -11 23
-11 4 -2 -49 -81 -102 -166 -111 -67 -7 -120 11 -162 54 -42 45 -56 92 -50
160 5 57 11 68 30 68 7 0 13 16 14 38 l1 37 -661 -1 -662 0 65 -25 c128 -49
205 -74 230 -74 25 0 26 -2 25 -66 l0 -65 -70 7 c-104 11 -195 11 -240 1 -22
-5 -53 -10 -70 -11 -44 -3 -175 -39 -175 -48 0 -4 -7 -8 -14 -8 -21 0 -66 -44
-66 -64 0 -9 4 -16 9 -16 4 0 6 -12 3 -26 -3 -20 0 -26 17 -31 11 -3 19 -8 16
-12 -2 -4 9 -15 25 -24 23 -14 33 -15 57 -5 15 6 38 13 50 14 12 2 54 13 95
26 59 18 100 23 218 25 l145 3 0 -69 0 -69 -68 -7 c-37 -3 -99 -17 -139 -31
-40 -13 -81 -22 -92 -19 -12 3 -15 2 -7 -1 10 -5 6 -13 -15 -30 -16 -13 -23
-23 -15 -24 8 0 4 -7 -10 -19 -13 -10 -29 -17 -35 -14 -12 4 -134 -113 -134
-129 0 -16 29 -8 34 10 7 21 106 121 106 107 0 -6 -25 -39 -54 -74 -57 -66
-84 -116 -71 -129 4 -4 10 -1 12 5 3 7 13 23 23 35 17 22 25 23 179 25 112 1
176 6 214 17 31 9 58 16 61 16 4 0 6 -49 5 -109 -1 -98 -3 -110 -20 -114 -11
-3 -17 -1 -13 4 17 28 -111 -25 -157 -65 -40 -34 -89 -99 -89 -118 0 -5 -6 -8
-14 -5 -10 4 -12 0 -9 -14 7 -24 10 -24 48 6 32 24 36 24 147 18 l115 -6 -1
-131 -1 -131 48 -5 c26 -3 47 -9 46 -15 0 -5 4 -11 10 -13 6 -2 11 3 11 12 0
17 35 22 45 6 4 -6 13 -5 25 3 16 9 24 9 40 0 12 -8 21 -9 25 -3 3 6 17 10 30
10 18 0 23 -4 19 -15 -4 -8 -1 -15 5 -15 6 0 11 7 11 15 0 13 57 15 454 15
l454 0 -1 -219 0 -219 -21 25 c-34 39 -99 42 -165 8 -29 -14 -51 -23 -48 -18
3 4 8 43 11 86 l6 77 -27 -6 c-19 -5 -24 -4 -18 6 6 9 3 10 -12 2 -14 -8 -33
-3 -83 20 -36 17 -85 33 -110 35 -97 10 -217 -46 -269 -125 -18 -27 -23 -53
-27 -138 -4 -75 -2 -109 6 -120 9 -9 11 -36 8 -79 -4 -49 -2 -67 9 -76 19 -16
38 3 39 39 2 124 2 122 29 112 14 -5 25 -6 25 -1 0 5 10 9 23 9 67 -1 107 6
107 19 0 7 7 13 15 13 8 0 15 6 15 13 0 8 4 7 10 -3 8 -13 11 -11 16 8 4 12
10 22 14 22 4 0 10 9 13 20 3 11 12 20 21 20 10 0 13 5 9 17 -5 12 -2 15 10
10 9 -3 17 -2 17 3 0 6 -4 10 -10 10 -5 0 -7 7 -4 15 4 9 19 15 38 15 23 0 27
3 16 10 -8 5 -23 7 -34 4 -12 -4 -16 -2 -12 5 4 6 16 11 27 11 21 0 26 16 7
23 -7 2 -10 8 -6 12 4 4 21 -7 38 -24 23 -23 27 -31 15 -31 -9 0 -13 -4 -10
-10 3 -5 1 -10 -4 -10 -6 0 -11 -5 -11 -11 0 -5 5 -7 12 -3 8 5 9 2 5 -10 -4
-9 -9 -42 -13 -72 -5 -50 -4 -54 16 -54 13 0 19 -4 14 -11 -8 -14 29 5 71 36
38 28 93 47 100 34 7 -11 -43 -59 -61 -59 -8 0 -14 -5 -14 -10 0 -6 -8 -14
-17 -17 -22 -9 -52 -43 -53 -60 0 -7 -5 -13 -12 -13 -6 0 -9 -3 -5 -6 3 -3 28
1 55 10 29 10 61 14 77 10 30 -7 64 -52 48 -62 -6 -4 -13 -18 -16 -32 l-4 -25
-2 26 c-2 37 -32 61 -72 57 -18 -2 -34 -8 -36 -13 -2 -7 12 -9 36 -7 33 3 40
1 46 -18 5 -15 0 -31 -14 -51 -24 -32 -9 -53 15 -23 11 13 14 14 11 4 -2 -8
-19 -24 -37 -34 -19 -11 -31 -15 -27 -9 4 6 4 13 0 16 -5 2 -2 2 5 0 18 -4 10
18 -10 30 -11 8 -24 4 -45 -11 -21 -15 -33 -18 -41 -10 -34 34 -108 -12 -160
-102 -14 -25 -34 -55 -45 -67 -11 -13 -18 -25 -15 -29 7 -6 40 35 90 110 18
27 44 56 58 65 24 15 25 15 9 -4 -9 -11 -14 -26 -12 -33 3 -7 -3 -23 -13 -34
-14 -16 -16 -22 -6 -25 9 -4 7 -10 -8 -23 -12 -10 -20 -24 -19 -32 4 -19 -21
-88 -32 -88 -5 0 -9 -6 -9 -13 0 -7 -9 -23 -20 -35 -11 -12 -20 -26 -20 -31 0
-6 -10 -16 -22 -22 -13 -7 -27 -18 -33 -25 -5 -8 -50 -33 -98 -57 -84 -42 -92
-44 -153 -39 -55 4 -64 2 -64 -12 0 -9 -5 -16 -11 -16 -6 0 -9 7 -5 15 6 17
-9 21 -19 5 -10 -16 -45 -32 -45 -20 0 5 7 10 15 10 8 0 15 4 15 9 0 5 18 27
40 50 35 36 46 41 84 41 56 0 126 27 105 42 -10 7 -8 8 8 3 17 -5 34 3 67 30
24 20 47 42 50 50 9 24 -4 46 -24 40 -10 -3 -21 -1 -25 4 -4 7 1 9 12 5 16 -5
15 -3 -2 11 -11 9 -39 21 -63 28 -37 10 -42 14 -36 32 16 48 16 102 -1 118 -9
9 -14 21 -10 26 3 6 -4 15 -16 22 -19 9 -21 9 -16 -4 4 -11 -4 -17 -30 -22
-43 -8 -57 3 -44 36 5 14 7 89 6 166 -2 78 0 154 5 170 5 15 16 54 25 85 17
61 56 108 107 129 15 6 25 16 22 21 -4 6 2 7 17 3 13 -4 21 -4 17 0 -4 4 23
22 60 41 91 45 121 64 153 99 45 48 40 51 -46 29 -16 -4 -17 -3 -5 5 28 19 -1
25 -48 8 -26 -9 -82 -23 -125 -31 -83 -15 -99 -22 -78 -35 10 -6 9 -10 -4 -14
-9 -4 -13 -3 -10 3 8 13 -1 13 -23 -1 -13 -8 -16 -21 -14 -52 3 -41 2 -42 -48
-67 -32 -15 -49 -29 -45 -38 2 -7 1 -10 -4 -7 -5 3 -13 0 -17 -6 -3 -6 -1 -15
6 -19 8 -5 7 -9 -5 -14 -13 -5 -15 -9 -6 -20 21 -25 -19 -29 -45 -5 -13 12
-28 18 -34 14 -8 -5 -26 7 -46 29 -30 33 -53 49 -40 27 4 -5 -4 -6 -16 -3 -19
5 -20 7 -5 10 18 4 23 17 8 26 -4 3 -16 -3 -26 -14 -20 -22 -46 -27 -42 -7 1
8 -13 12 -46 11 -79 -1 -162 -73 -187 -163 -5 -20 -10 -76 -10 -125 l0 -88
-32 6 c-21 4 -28 3 -19 -3 8 -5 9 -11 3 -15 -5 -3 -12 1 -16 9 -6 17 19 45 40
45 8 0 14 5 14 10 0 6 -11 8 -25 6 -15 -3 -25 0 -26 7 -2 44 -7 195 -8 259
l-1 77 -55 0 c-35 0 -55 -5 -55 -12 0 -8 -3 -8 -9 1 -5 9 -34 14 -87 15 l-79
2 -46 46 c-38 39 -53 47 -96 52 -47 5 -150 -16 -169 -36 -4 -4 -12 -3 -18 2
-6 5 -35 16 -64 24 -64 19 -103 7 -133 -42 -11 -19 -24 -29 -31 -25 -7 5 -8 3
-4 -5 5 -8 0 -14 -14 -18 -17 -4 -21 -11 -17 -29 6 -31 -13 -31 -42 0 -21 23
-22 25 -4 28 10 3 -3 3 -29 0 -33 -3 -48 -1 -48 7 0 7 -5 9 -12 5 -22 -14 -52
-12 -71 4 -11 9 -17 11 -17 4 0 -7 4 -12 8 -12 4 0 8 -9 8 -19 0 -16 -4 -18
-18 -10 -10 6 -23 7 -28 4 -6 -3 -10 -1 -10 6 0 8 -4 8 -15 -1 -12 -10 -15
-10 -15 2 0 8 -11 28 -24 43 -13 15 -33 45 -43 66 -10 22 -22 39 -26 39 -5 0
-5 5 -2 10 3 6 3 10 -2 10 -4 0 -14 19 -21 43 -7 23 -31 89 -53 147 -63 171
-98 323 -99 440 0 30 0 68 0 85 l-1 29 46 -49 c25 -27 45 -51 45 -52 0 -2 -11
-1 -24 3 -13 3 -27 1 -30 -5 -4 -6 0 -11 8 -11 8 0 27 -11 42 -25 l27 -25 -27
0 c-14 0 -26 -4 -26 -10 0 -5 10 -10 23 -10 12 0 36 -9 52 -20 l30 -20 -32 0
c-20 0 -33 -5 -33 -13 0 -9 11 -12 34 -9 30 4 41 -2 92 -52 38 -36 73 -61 99
-68 22 -6 44 -15 48 -18 5 -4 27 -3 49 2 28 6 44 5 55 -3 11 -10 11 -14 1 -21
-8 -6 -5 -7 11 -3 17 5 21 4 16 -5 -5 -8 -3 -11 6 -8 8 3 13 17 12 32 -1 14 2
24 8 21 5 -4 9 -2 9 3 0 12 -81 122 -104 141 -29 24 -31 2 -1 -29 16 -16 26
-32 23 -35 -3 -3 -18 9 -33 27 -35 41 -138 124 -165 133 -11 3 -20 11 -20 16
0 5 20 -2 43 -16 47 -27 57 -30 57 -17 0 5 -26 22 -57 38 -61 31 -75 44 -83
83 -3 13 -11 26 -19 29 -14 5 -12 -18 5 -63 6 -15 3 -15 -27 -2 -27 10 -37 23
-48 56 -8 27 -17 39 -23 33 -6 -6 -4 -23 6 -46 8 -20 11 -36 6 -36 -20 0 -39
13 -33 23 3 5 2 7 -4 4 -5 -4 -20 5 -32 19 -20 23 -21 35 -24 267 l-2 244 31
-40 c29 -36 59 -106 50 -115 -2 -2 -12 -5 -23 -6 -24 -4 -19 -20 7 -24 11 -2
27 -16 35 -32 14 -27 13 -29 -5 -35 -27 -9 -25 -25 3 -25 25 -1 101 -60 76
-60 -8 0 -24 -7 -35 -15 -18 -15 -17 -16 14 -10 27 6 40 1 82 -30 28 -20 50
-41 50 -46 0 -13 76 -49 104 -49 14 0 28 -5 31 -10 4 -6 12 -10 18 -9 28 5
115 -15 149 -35 47 -27 58 -16 23 26 -45 55 -167 189 -217 237 -47 46 -60 57
-110 89 -32 20 -49 49 -20 33 10 -5 44 -29 77 -53 83 -60 116 -80 122 -75 2 3
-7 13 -22 24 -14 10 -44 32 -66 50 -22 17 -64 46 -94 63 -53 30 -85 70 -85
105 0 8 -4 15 -10 15 -10 0 -14 -13 -11 -43 2 -15 -1 -16 -23 -6 -17 8 -31 28
-42 60 -17 45 -34 65 -34 38 0 -6 -7 -8 -17 -4 -13 4 -12 1 5 -15 25 -23 29
-40 9 -40 -14 0 -54 38 -49 46 1 2 -1 4 -5 3 -9 -1 -26 31 -20 38 3 3 54 -3
114 -12 80 -12 130 -27 194 -56 47 -21 91 -39 97 -39 6 0 23 -5 39 -12 15 -6
34 -10 42 -9 7 1 11 -1 8 -6 -3 -4 12 -8 33 -8 24 -1 48 -9 61 -20 12 -11 19
-14 15 -7 -4 6 -2 12 3 12 6 0 11 -5 11 -11 0 -6 7 -9 15 -5 8 3 15 1 15 -3 0
-5 7 -11 14 -14 11 -4 13 -1 9 11 -6 14 -4 15 8 5 27 -22 112 -35 144 -23 35
13 45 26 45 62 0 33 -73 114 -113 123 -15 4 -30 11 -33 16 -2 5 -24 13 -47 19
-23 6 -96 30 -162 54 -129 47 -209 62 -399 72 l-118 7 5 38 5 39 -182 0 c-128
0 -186 -4 -194 -12 -9 -9 -12 -9 -12 0 0 9 -39 12 -144 12 l-143 0 -33 -72
c-46 -103 -82 -208 -82 -236 0 -19 -10 -29 -47 -45 l-46 -20 28 -8 c16 -4 46
-6 67 -3 21 2 41 0 45 -6 4 -6 -9 -10 -32 -10 -42 0 -63 -14 -63 -41 0 -14
-13 -18 -67 -21 -43 -3 -71 -1 -75 6 -8 11 -29 80 -67 216 -12 41 -34 112 -48
158 l-27 82 -234 0 c-184 0 -232 -3 -226 -12z m1082 -27 c3 -8 -1 -12 -9 -9
-7 2 -15 10 -17 17 -3 8 1 12 9 9 7 -2 15 -10 17 -17z m5930 12 c-16 -2 -40
-2 -55 0 -16 2 -3 4 27 4 30 0 43 -2 28 -4z m310 -85 l-1 -93 -7 65 c-4 36 -7
58 -8 50 -2 -13 -4 -13 -11 0 -6 8 -8 17 -6 20 2 3 -18 4 -43 2 -35 -2 -43 0
-32 7 11 8 0 11 -45 13 l-60 2 55 5 c52 5 51 6 -35 11 -84 6 -81 6 53 8 l142
2 -2 -92z m-7146 50 c-9 -9 -12 -7 -12 12 0 19 3 21 12 12 9 -9 9 -15 0 -24z
m4045 0 c-3 -8 -6 -5 -6 6 -1 11 2 17 5 13 3 -3 4 -12 1 -19z m2856 15 c-7 -2
-21 -2 -30 0 -10 3 -4 5 12 5 17 0 24 -2 18 -5z m64 -19 c-3 -3 -12 -4 -19 -1
-8 3 -5 6 6 6 11 1 17 -2 13 -5z m-1862 -15 c-5 -7 16 -9 69 -4 42 3 76 2 76
-3 0 -5 15 -9 33 -9 102 0 198 -72 256 -193 23 -46 79 -202 96 -265 19 -70 78
-183 105 -202 31 -22 41 -48 30 -78 -5 -14 -14 -23 -20 -20 -5 3 -10 2 -10 -4
0 -11 -79 -35 -88 -27 -3 3 2 6 11 6 9 0 19 5 22 10 4 6 -9 10 -30 10 -25 0
-35 -4 -32 -12 2 -7 -2 -28 -10 -45 -7 -18 -9 -33 -5 -33 9 0 11 -6 15 -55 1
-22 -4 -32 -21 -41 -44 -22 -49 -34 -15 -34 18 0 35 -5 39 -12 4 -6 3 -8 -3
-5 -7 4 -13 -35 -18 -113 -6 -106 -9 -120 -26 -125 -24 -8 -165 2 -239 17 -30
6 -68 12 -85 13 -84 6 -300 66 -370 104 -22 11 -45 21 -51 21 -6 0 -17 7 -24
15 -7 8 -20 15 -29 15 -9 0 -24 8 -32 18 -9 9 -37 35 -63 57 -81 68 -86 74
-86 105 0 17 -4 30 -10 30 -5 0 -7 -7 -4 -15 4 -8 2 -15 -3 -15 -12 0 -83 139
-83 161 0 8 -6 21 -12 28 -10 9 -13 58 -13 179 1 152 3 171 23 215 13 27 27
45 33 41 7 -4 7 2 -1 15 -10 20 -6 28 31 69 24 26 48 49 53 51 6 2 19 13 31
23 29 28 55 41 55 28 0 -5 4 -10 10 -10 5 0 7 6 4 14 -3 7 2 16 11 20 9 3 15
1 14 -7 -3 -28 2 -37 24 -36 16 1 18 2 5 6 -22 6 -22 12 1 41 21 24 37 28 43
10 6 -16 58 -1 58 16 0 15 24 28 34 19 11 -11 65 -13 71 -3 10 16 28 12 22 -4
-4 -10 0 -14 13 -13 10 1 16 5 14 9 -11 17 9 28 47 28 26 0 38 -4 34 -11z
m-4985 -33 c0 -3 -4 -8 -10 -11 -5 -3 -10 -1 -10 4 0 6 5 11 10 11 6 0 10 -2
10 -4z m615 -56 c3 -5 -1 -10 -9 -10 -9 0 -16 5 -16 10 0 6 4 10 9 10 6 0 13
-4 16 -10z m205 -30 c0 -5 -7 -10 -16 -10 -8 0 -12 5 -9 10 3 6 10 10 16 10 5
0 9 -4 9 -10z m6207 -92 c-2 -18 -4 -6 -4 27 0 33 2 48 4 33 2 -15 2 -42 0
-60z m-6077 52 c0 -5 -4 -10 -10 -10 -5 0 -10 5 -10 10 0 6 5 10 10 10 6 0 10
-4 10 -10z m-75 -75 c80 -30 165 -85 204 -132 l30 -37 -1 -288 -1 -287 -45 5
c-33 4 -49 1 -63 -12 -27 -24 -24 -40 11 -53 31 -10 60 -6 60 10 0 5 9 9 20 9
17 0 20 -7 20 -45 0 -41 -5 -50 -46 -90 -41 -40 -128 -105 -140 -105 -3 0 -29
-11 -58 -24 -108 -49 -198 -59 -277 -30 -30 11 -74 16 -134 15 -179 -2 -343
40 -408 104 -51 52 -87 143 -97 245 -7 75 -6 99 6 121 8 15 14 38 14 49 0 12
5 31 11 42 9 17 13 18 21 7 8 -11 9 -10 4 4 -3 10 -1 25 4 35 5 9 16 34 26 54
21 48 82 112 126 131 51 24 201 31 278 13 83 -18 94 -22 159 -64 63 -40 83
-60 116 -124 33 -62 42 -190 16 -216 -54 -53 -51 -210 4 -189 11 5 15 14 12
27 -3 10 -1 21 4 24 5 2 4 3 -3 2 -7 -2 -12 -11 -12 -20 2 -22 -9 -20 -24 5
-17 27 -8 51 24 66 30 14 54 7 54 -16 -1 -14 -3 -13 -15 3 -8 11 -15 17 -15
14 0 -4 -3 -13 -6 -22 -5 -13 1 -16 25 -16 17 0 31 5 31 11 0 5 5 7 10 4 6 -3
10 0 10 8 0 10 7 13 19 10 18 -5 53 13 94 47 30 25 88 108 90 129 1 12 6 17
16 13 11 -4 13 0 8 19 -4 13 -7 31 -7 38 0 12 -3 12 -12 3 -7 -7 -20 -12 -31
-12 -10 0 -15 -4 -12 -10 3 -5 2 -10 -4 -10 -26 0 -41 -33 -40 -86 1 -30 0
-57 -3 -59 -10 -10 -39 8 -34 20 3 8 -2 16 -10 19 -10 4 -13 13 -9 27 7 20 6
20 -19 -2 -32 -28 -32 -32 -3 -24 18 5 19 4 7 -5 -13 -10 -12 -11 3 -6 9 3 17
1 17 -4 0 -14 -23 -12 -44 3 -16 12 -16 14 3 39 12 14 21 31 21 38 0 6 5 8 10
5 6 -4 5 5 -2 20 -9 19 -9 28 0 37 18 18 15 39 -10 65 -23 24 -11 31 23 13 14
-8 25 -7 41 5 13 8 32 16 43 16 16 1 16 2 3 6 -20 5 -13 33 9 33 8 0 13 6 10
13 -3 9 3 13 17 13 12 -1 21 5 21 14 0 8 6 20 14 26 16 12 7 49 -9 39 -6 -3
-13 1 -17 10 -5 16 -7 16 -15 1 -5 -9 -6 -26 -2 -38 5 -17 3 -20 -12 -14 -47
18 -106 26 -124 16 -29 -15 -60 -12 -67 8 -20 55 -150 168 -210 184 -42 10
-53 21 -33 33 6 3 10 2 10 -2 0 -10 90 -36 97 -29 2 2 -9 7 -26 11 -22 5 -31
12 -31 26 0 10 6 19 13 19 8 0 19 10 26 23 6 12 9 14 7 4 -4 -12 2 -21 21 -28
19 -7 23 -13 15 -21 -8 -8 -15 -8 -27 2 -19 16 -20 3 0 -16 8 -8 12 -21 9 -29
-5 -11 2 -14 25 -12 17 1 33 8 36 15 2 6 10 12 17 12 19 0 80 -94 82 -124 1
-20 6 -26 26 -27 22 0 23 -1 6 -8 -18 -7 -18 -8 5 -14 43 -12 47 -9 45 35 -1
38 -6 46 -51 80 -36 28 -49 45 -48 61 1 12 -1 16 -3 10 -8 -18 -25 -16 -18 2
5 12 -3 15 -35 15 -23 0 -41 4 -41 8 0 4 17 7 38 6 21 -2 27 0 12 3 -14 2 -29
9 -34 13 -5 5 -17 5 -27 0 -14 -8 -22 -4 -38 19 -26 36 -26 39 2 43 46 8 133
-4 192 -27z m5831 -27 c38 -75 44 -181 15 -276 -34 -113 -131 -205 -250 -237
-69 -18 -199 -7 -220 19 -9 11 1 13 56 13 168 -1 320 103 374 259 23 65 25
174 4 233 -19 56 -11 52 21 -11z m-6161 32 c-27 -12 -43 -12 -25 0 8 5 22 9
30 9 10 0 8 -3 -5 -9z m3172 -13 c-1 -7 5 -12 13 -12 25 -1 63 -32 55 -46 -5
-7 -4 -10 2 -6 6 4 19 -10 28 -30 14 -29 15 -40 6 -55 -7 -11 -9 -28 -6 -38 7
-21 -5 -49 -31 -74 -17 -18 -39 -22 -29 -6 14 23 -8 29 -25 8 -29 -34 -24 -12
5 26 51 67 25 143 -53 153 -38 5 -45 3 -68 -23 -22 -25 -25 -35 -20 -79 5 -47
4 -49 -10 -30 -16 20 -16 20 -10 -2 4 -12 2 -24 -3 -27 -6 -4 -7 -14 -4 -23 5
-11 3 -14 -6 -9 -7 5 -11 17 -8 27 4 16 2 17 -15 8 -15 -8 -23 -8 -32 2 -8 9
-8 10 3 4 11 -6 13 -4 8 9 -4 10 -7 25 -8 34 0 14 -2 13 -9 -3 -7 -16 -8 -14
-7 12 2 22 5 29 14 22 7 -7 14 -6 19 2 5 8 3 9 -6 4 -10 -6 -11 -4 -6 11 5 10
10 28 13 39 4 16 3 17 -6 5 -9 -13 -11 -13 -11 3 0 15 11 21 32 18 3 0 5 10 4
23 -4 35 61 70 115 63 22 -3 37 -1 33 4 -3 5 2 6 10 3 9 -3 14 -11 13 -17z
m-2257 -67 c14 -10 23 -21 20 -23 -3 -3 -18 6 -35 19 -35 28 -22 32 15 4z
m2080 16 c0 -3 -4 -8 -10 -11 -5 -3 -10 -1 -10 4 0 6 5 11 10 11 6 0 10 -2 10
-4z m-2008 -115 c53 -25 81 -47 130 -103 35 -39 86 -94 113 -122 50 -51 50
-51 23 -54 -49 -6 -164 36 -218 79 -67 53 -133 144 -158 219 l-21 60 32 -24
c18 -13 62 -38 99 -55z m-892 -16 c0 -8 6 -15 13 -16 10 0 10 -2 0 -6 -7 -2
-13 -17 -14 -31 0 -24 -1 -25 -9 -7 -12 28 -12 75 0 75 6 0 10 -7 10 -15z
m-140 -21 c0 -8 -4 -12 -10 -9 -5 3 -10 13 -10 21 0 8 5 12 10 9 6 -3 10 -13
10 -21z m2425 -44 c-3 -5 -27 -10 -53 -10 -60 0 -160 -24 -215 -51 -42 -20
-42 -20 -17 0 50 41 307 96 285 61z m760 -10 c3 -5 1 -10 -4 -10 -6 0 -11 5
-11 10 0 6 2 10 4 10 3 0 8 -4 11 -10z m-27 -26 c-2 -11 10 -21 37 -31 45 -16
95 -59 94 -82 0 -11 -3 -9 -9 5 -19 49 -115 90 -186 80 -25 -3 -44 -2 -44 4 0
5 7 7 15 4 8 -4 15 -1 15 5 0 6 7 8 15 5 9 -4 15 0 15 7 0 11 3 11 10 -1 9
-13 12 -13 21 3 13 21 21 22 17 1z m-722 -77 l2 -76 -42 -15 c-79 -29 -121
-36 -216 -36 -146 0 -163 10 -118 71 25 33 101 79 161 99 44 14 187 39 202 36
6 -2 11 -37 11 -79z m449 73 l20 -9 -20 -1 c-11 -1 -15 -4 -8 -6 16 -7 -18
-42 -35 -36 -23 8 -62 -27 -62 -56 0 -15 4 -32 8 -38 10 -16 47 -23 65 -12 13
7 15 5 11 -7 -4 -10 2 -18 17 -23 l23 -9 -28 -18 c-64 -42 -132 -12 -161 71
-11 33 -11 40 1 47 8 4 14 13 14 20 0 7 -4 6 -10 -3 -5 -8 -10 -10 -10 -5 0
19 31 55 42 49 7 -4 8 -2 4 5 -5 7 5 17 26 26 37 16 73 18 103 5z m-2603 -38
c2 -18 10 -37 18 -42 13 -8 12 -10 -2 -10 -15 0 -18 -9 -18 -44 0 -25 -4 -48
-10 -51 -6 -4 -10 13 -10 44 0 39 -4 51 -15 51 -8 0 -15 5 -15 10 0 6 9 10 20
10 16 0 20 7 20 37 0 44 7 41 12 -5z m2758 4 c0 -2 -7 -7 -16 -10 -8 -3 -12
-2 -9 4 6 10 25 14 25 6z m-2678 -38 c-15 -15 -26 -4 -18 18 5 13 9 15 18 6 9
-9 9 -15 0 -24z m2675 -44 c-2 -3 -12 -2 -21 2 -21 8 -21 40 2 53 14 8 17 5
20 -21 2 -16 1 -32 -1 -34z m187 45 c25 -20 26 -22 9 -35 -27 -20 -53 -17 -53
5 0 11 -3 26 -6 35 -9 23 18 20 50 -5z m-2754 -9 c0 -5 -5 -10 -11 -10 -5 0
-7 5 -4 10 3 6 8 10 11 10 2 0 4 -4 4 -10z m2427 -12 c-3 -8 -6 -5 -6 6 -1 11
2 17 5 13 3 -3 4 -12 1 -19z m-2507 -4 c0 -8 -4 -12 -10 -9 -5 3 -10 10 -10
16 0 5 5 9 10 9 6 0 10 -7 10 -16z m70 -18 c0 -2 -9 -6 -20 -9 -11 -3 -18 -1
-14 4 5 9 34 13 34 5z m2553 -51 c-3 -9 -11 -6 -27 9 -12 11 -31 27 -42 33
-10 7 2 3 28 -9 27 -12 44 -26 41 -33z m-113 35 c0 -5 -5 -10 -11 -10 -5 0 -7
5 -4 10 3 6 8 10 11 10 2 0 4 -4 4 -10z m330 -25 c-14 -8 -33 -14 -42 -15 -10
0 -18 -4 -18 -8 0 -4 -16 -6 -35 -4 -23 3 -35 0 -35 -8 0 -10 -3 -10 -15 0 -8
7 -24 10 -35 7 -12 -3 -20 0 -20 8 0 9 21 13 78 13 42 0 88 4 102 10 36 16 49
14 20 -3z m-566 -91 c26 -10 40 -43 25 -60 -6 -8 -8 -14 -5 -14 4 0 1 -6 -6
-14 -7 -8 -16 -12 -20 -9 -5 2 -8 -1 -8 -6 0 -15 -53 -14 -68 1 -18 18 -14 62
8 86 21 22 45 27 74 16z m3853 -16 c-3 -8 -6 -5 -6 6 -1 11 2 17 5 13 3 -3 4
-12 1 -19z m-2708 -48 c8 -25 32 -83 56 -130 84 -168 112 -316 80 -425 -9 -33
-22 -66 -27 -72 -6 -8 -34 -13 -69 -13 l-59 0 -1 43 c-4 244 -3 654 2 649 3
-4 11 -27 18 -52z m-3465 31 c4 -5 -3 -7 -14 -4 -23 6 -26 13 -6 13 8 0 17 -4
20 -9z m619 -18 c48 -3 257 -169 257 -204 0 -42 -94 -33 -160 16 -56 41 -89
82 -124 155 -28 58 -32 73 -13 50 7 -8 25 -16 40 -17z m-483 -15 c0 -16 -3
-19 -11 -11 -6 6 -8 16 -5 22 11 17 16 13 16 -11z m2058 -81 c11 -9 18 -57 8
-57 -2 0 -13 -3 -23 -7 -15 -6 -16 -4 -6 8 10 13 10 19 -1 34 -12 16 -16 17
-30 6 -19 -16 -21 -37 -3 -45 6 -3 3 -5 -7 -3 -20 2 -32 37 -13 37 5 0 7 3 4
7 -4 3 -2 12 4 19 12 14 48 15 67 1z m-2198 -11 c0 -2 -7 -6 -15 -10 -8 -3
-15 -1 -15 4 0 6 7 10 15 10 8 0 15 -2 15 -4z m2100 -98 l0 -60 -97 6 c-130 8
-125 7 -111 23 27 33 181 107 201 96 4 -2 7 -31 7 -65z m-125 52 c-3 -5 -12
-10 -18 -10 -7 0 -6 4 3 10 19 12 23 12 15 0z m-1785 -26 c0 -8 -5 -12 -10 -9
-6 4 -8 11 -5 16 9 14 15 11 15 -7z m5597 -230 c-3 -3 -12 -4 -19 -1 -8 3 -5
6 6 6 11 1 17 -2 13 -5z m79 -10 c18 -14 18 -14 -6 -3 -31 14 -36 19 -24 19 6
0 19 -7 30 -16z m-129 0 c-3 -3 -12 -4 -19 -1 -8 3 -5 6 6 6 11 1 17 -2 13 -5z
m443 -13 c0 -16 -24 -17 -105 -5 l-80 11 93 2 c50 0 92 -3 92 -8z m-970 -16
c0 -8 -4 -15 -10 -15 -5 0 -10 7 -10 15 0 8 5 15 10 15 6 0 10 -7 10 -15z
m627 3 c-8 -5 -7 -8 5 -8 9 0 20 -5 24 -12 4 -7 3 -8 -4 -4 -20 12 -13 0 10
-20 22 -19 22 -19 8 0 -14 18 -13 19 3 13 10 -4 23 -7 28 -7 6 0 8 -3 6 -8 -3
-4 15 -8 39 -9 25 -1 44 3 44 9 0 6 -6 8 -13 5 -8 -3 -20 -1 -28 4 -11 7 -9 9
8 9 32 0 53 -10 53 -26 0 -10 -12 -15 -37 -15 -21 0 -53 -1 -71 -1 -24 -1 -42
8 -65 29 -18 17 -40 35 -50 40 -14 7 -10 9 18 9 20 0 30 -3 22 -8z m-3314 -5
c-7 -2 -19 -2 -25 0 -7 3 -2 5 12 5 14 0 19 -2 13 -5z m-2413 -42 c0 -6 -4
-13 -10 -16 -5 -3 -10 1 -10 9 0 9 5 16 10 16 6 0 10 -4 10 -9z m4879 -18 c7
-7 9 -13 6 -13 -3 0 -3 -5 1 -12 13 -21 14 -60 1 -55 -7 2 -29 10 -49 17 -44
16 -55 36 -33 60 18 20 57 21 74 3z m56 7 c3 -5 1 -10 -4 -10 -6 0 -11 5 -11
10 0 6 2 10 4 10 3 0 8 -4 11 -10z m1143 -23 c3 -23 -2 -27 -49 -41 -29 -9
-56 -16 -60 -16 -10 0 -39 29 -39 40 0 11 60 18 90 10 38 -11 52 -3 39 22 -9
16 -8 19 3 16 7 -3 14 -16 16 -31z m-599 -29 c13 -4 12 -5 -1 -10 -11 -4 -19
2 -27 20 -9 22 -9 24 1 11 7 -9 20 -18 27 -21z m-6162 -20 c-3 -8 -6 -5 -6 6
-1 11 2 17 5 13 3 -3 4 -12 1 -19z m478 -34 c22 -31 60 -83 85 -115 73 -94
130 -178 130 -191 0 -7 12 -24 27 -40 14 -15 24 -30 22 -33 -7 -7 -99 80 -99
94 0 6 -5 11 -11 11 -6 0 -9 7 -5 15 3 8 2 15 -3 15 -4 0 -16 18 -26 40 -19
43 -56 84 -41 45 5 -11 17 -42 27 -69 10 -27 28 -59 40 -72 13 -14 19 -29 15
-42 -5 -15 -1 -21 19 -26 15 -4 25 -13 25 -25 0 -30 -49 -15 -57 18 -9 38 -34
73 -48 67 -19 -7 -38 10 -32 29 4 9 11 13 17 10 5 -3 10 -2 10 3 0 5 -10 12
-22 15 -12 4 -19 9 -15 13 4 4 2 13 -4 21 -6 7 -9 13 -5 13 3 0 -4 21 -18 48
-13 26 -27 58 -31 72 -7 25 -7 25 11 5 47 -50 55 -46 19 10 -59 90 -64 96 -94
88 -26 -6 -26 -6 -7 16 11 11 22 21 25 21 3 0 24 -25 46 -56z m-675 16 c-32
-28 -38 -25 -10 5 13 14 26 23 28 20 3 -3 -5 -14 -18 -25z m6070 -14 c0 -36
-17 -41 -18 -6 0 17 4 30 9 30 5 0 9 -11 9 -24z m-1420 4 c0 -5 -4 -10 -10
-10 -5 0 -10 5 -10 10 0 6 5 10 10 10 6 0 10 -4 10 -10z m2200 0 l25 -8 -25
-1 c-14 0 -32 4 -40 9 -13 9 -13 10 0 9 8 -1 26 -5 40 -9z m-905 -9 c3 -5 1
-12 -5 -16 -5 -3 -10 1 -10 9 0 18 6 21 15 7z m1005 -6 c0 -8 5 -15 10 -15 6
0 10 -4 10 -10 0 -5 -6 -10 -13 -10 -14 0 -39 35 -30 44 11 11 23 6 23 -9z
m-6350 -49 c0 -5 -7 -3 -15 4 -8 7 -15 22 -15 34 1 20 2 20 15 -4 8 -14 14
-29 15 -34z m2990 39 c-14 -8 -34 -14 -45 -14 -13 0 -7 5 15 13 47 18 61 18
30 1z m1027 -11 c-3 -3 -12 -4 -19 -1 -8 3 -5 6 6 6 11 1 17 -2 13 -5z m250 0
c-3 -3 -12 -4 -19 -1 -8 3 -5 6 6 6 11 1 17 -2 13 -5z m-4312 -14 c3 -5 1 -10
-4 -10 -6 0 -11 5 -11 10 0 6 2 10 4 10 3 0 8 -4 11 -10z m2955 0 c-8 -5 -26
-9 -40 -9 -23 1 -23 2 5 9 43 11 52 11 35 0z m2315 1 c3 -5 1 -12 -5 -16 -5
-3 -10 1 -10 9 0 18 6 21 15 7z m-5830 -11 c-3 -5 -11 -10 -16 -10 -6 0 -7 5
-4 10 3 6 11 10 16 10 6 0 7 -4 4 -10z m970 -10 c-3 -5 -10 -10 -16 -10 -5 0
-9 5 -9 10 0 6 7 10 16 10 8 0 12 -4 9 -10z m2468 3 c-7 -2 -19 -2 -25 0 -7 3
-2 5 12 5 14 0 19 -2 13 -5z m1993 -51 c35 -46 -2 -122 -60 -122 -81 0 -107
114 -32 145 34 15 71 5 92 -23z m560 23 c-8 -8 -18 -15 -22 -15 -3 0 -1 7 6
15 7 8 17 15 22 15 5 0 3 -7 -6 -15z m-6026 -5 c0 -5 -5 -10 -11 -10 -5 0 -7
5 -4 10 3 6 8 10 11 10 2 0 4 -4 4 -10z m6860 -14 c0 -3 -4 -8 -10 -11 -5 -3
-10 -1 -10 4 0 6 5 11 10 11 6 0 10 -2 10 -4z m136 -73 c-2 -3 -17 0 -33 5
-17 6 -21 11 -10 11 9 1 17 6 17 11 0 6 6 17 13 24 10 11 13 9 15 -16 2 -16 1
-32 -2 -35z m-381 28 c-6 -5 -25 10 -25 20 0 5 6 4 14 -3 8 -7 12 -15 11 -17z
m-6875 -1 c0 -5 -5 -10 -11 -10 -5 0 -7 5 -4 10 3 6 8 10 11 10 2 0 4 -4 4
-10z m7177 -16 c10 -10 9 -13 -3 -18 -27 -10 -57 -6 -99 13 l-40 18 65 -1 c36
0 71 -6 77 -12z m-532 -4 c3 -5 1 -10 -4 -10 -6 0 -11 5 -11 10 0 6 2 10 4 10
3 0 8 -4 11 -10z m-4878 -16 c-3 -3 -12 -4 -19 -1 -8 3 -5 6 6 6 11 1 17 -2
13 -5z m801 -13 c22 -20 32 -81 12 -81 -5 0 -10 4 -10 8 0 5 -10 14 -23 21
-13 7 -31 26 -41 42 l-17 29 28 0 c15 -1 38 -9 51 -19z m192 -2 c0 -6 -4 -7
-10 -4 -5 3 -10 11 -10 16 0 6 5 7 10 4 6 -3 10 -11 10 -16z m-421 1 c16 0 84
-79 111 -130 15 -27 6 -25 -44 11 -24 16 -58 33 -77 36 -30 4 -87 53 -89 75 0
8 49 16 68 11 8 -1 22 -3 31 -3z m4916 -9 c-3 -6 -14 -11 -23 -11 -15 1 -15 2
2 15 21 16 32 13 21 -4z m-5382 -5 c20 0 23 -12 5 -19 -9 -4 -8 -6 2 -6 17 -1
45 -61 45 -95 0 -27 -22 -31 -35 -7 -9 17 -8 21 5 21 19 0 19 5 -1 35 -9 14
-24 25 -33 25 -9 0 -22 13 -28 31 -11 27 -10 30 5 23 9 -4 25 -7 35 -8z m4334
-2 c-3 -3 -12 -4 -19 -1 -8 3 -5 6 6 6 11 1 17 -2 13 -5z m-127 -14 c0 -5 -2
-10 -4 -10 -3 0 -8 5 -11 10 -3 6 -1 10 4 10 6 0 11 -4 11 -10z m901 3 c-19
-3 -42 -14 -52 -26 -18 -22 -18 -22 -19 -1 0 30 8 34 59 32 39 -1 41 -2 12 -5z
m-4070 -35 c20 -22 25 -48 11 -48 -8 0 -16 14 -40 63 -8 15 11 6 29 -15z
m4349 7 c0 -8 -7 -15 -16 -15 -14 0 -14 3 -4 15 7 8 14 15 16 15 2 0 4 -7 4
-15z m-6230 -5 c0 -5 -2 -10 -4 -10 -3 0 -8 5 -11 10 -3 6 -1 10 4 10 6 0 11
-4 11 -10z m470 -50 c23 -44 26 -60 8 -42 -11 11 -39 82 -32 82 2 0 13 -18 24
-40z m1896 24 c18 -14 18 -14 -6 -3 -31 14 -36 19 -24 19 6 0 19 -7 30 -16z
m335 -17 c-13 -12 -20 -15 -16 -7 14 26 28 41 33 35 3 -3 -5 -16 -17 -28z
m2423 -3 c3 -8 2 -12 -4 -9 -6 3 -10 10 -10 16 0 14 7 11 14 -7z m46 12 c0 -3
-4 -8 -10 -11 -5 -3 -10 -1 -10 4 0 6 5 11 10 11 6 0 10 -2 10 -4z m906 -32
c-5 -17 -2 -24 8 -24 21 0 40 -26 25 -36 -7 -4 -9 -3 -6 3 4 6 0 13 -8 17 -8
3 -15 1 -15 -4 0 -6 -5 -10 -11 -10 -5 0 -7 5 -3 11 4 7 1 10 -7 7 -8 -3 -13
-12 -11 -21 2 -11 -6 -8 -26 11 -15 15 -37 33 -47 40 -11 7 -14 10 -7 7 7 -4
19 -1 27 5 11 9 15 9 15 1 0 -6 7 -11 15 -11 8 0 15 6 15 13 0 9 3 8 9 -2 6
-9 11 -10 15 -2 4 6 4 16 0 23 -5 7 -3 8 5 3 8 -4 10 -17 7 -31z m-6423 -4
c-4 -15 0 -20 16 -20 12 0 19 -4 16 -10 -3 -5 -15 -10 -25 -10 -12 0 -21 -10
-25 -30 -10 -48 -28 -49 -20 -2 6 37 4 41 -17 45 -21 4 -21 4 3 6 20 1 29 8
33 26 4 14 11 23 15 20 5 -3 7 -14 4 -25z m1895 2 c6 -18 -15 -14 -22 4 -4 10
-1 14 6 12 6 -2 14 -10 16 -16z m626 9 c6 -5 28 -14 49 -20 20 -7 37 -17 37
-22 0 -5 6 -9 14 -9 7 0 18 -6 24 -12 8 -10 -3 -12 -53 -10 -72 4 -129 -19
-164 -65 l-20 -28 -1 43 c0 47 23 112 40 112 6 0 9 3 7 8 -7 10 54 13 67 3z
m311 -1 c-4 -6 -1 -19 7 -28 12 -15 11 -16 -4 -3 -20 15 -24 41 -7 41 5 0 7
-5 4 -10z m375 -26 c0 -14 -22 -44 -39 -54 -19 -10 -20 -1 -5 48 3 12 44 18
44 6z m1123 -14 c-144 -21 -238 -143 -266 -345 -4 -28 -4 -28 -6 6 -1 43 23
127 54 189 46 90 149 161 230 159 38 -1 37 -2 -12 -9z m249 -2 c99 -30 195
-174 233 -353 11 -53 -11 -13 -24 45 -32 134 -109 248 -195 290 -45 21 -106
26 -135 10 -11 -6 -29 -6 -47 0 l-29 10 30 -4 c17 -3 37 -1 45 5 21 12 75 11
122 -3z m-3292 -8 c0 -5 -2 -10 -4 -10 -3 0 -8 5 -11 10 -3 6 -1 10 4 10 6 0
11 -4 11 -10z m4230 6 c0 -2 -8 -10 -17 -17 -16 -13 -17 -12 -4 4 13 16 21 21
21 13z m-1842 -23 c5 -10 6 -27 2 -38 -6 -16 -8 -12 -12 18 -5 41 -3 45 10 20z
m2676 -14 c-3 -5 2 -9 10 -9 8 0 17 -4 21 -10 3 -5 -6 -5 -24 1 -20 7 -29 17
-28 29 1 14 4 16 14 8 7 -5 10 -14 7 -19z m-1896 0 c2 -5 28 -22 57 -39 67
-38 147 -110 185 -166 48 -69 34 -62 -25 14 -39 50 -80 87 -137 126 -139 92
-113 58 96 -129 78 -70 79 -70 82 -125 3 -51 1 -50 -12 8 -11 52 -112 79 -174
47 -35 -18 -49 -42 -61 -104 l-8 -46 3 54 c3 48 8 59 41 89 35 32 40 34 96 30
38 -3 65 -11 79 -23 11 -10 20 -14 20 -8 0 5 -26 31 -57 59 -32 27 -89 79
-128 116 l-71 66 -79 -70 c-155 -138 -180 -161 -160 -153 11 5 45 10 75 12 94
6 142 -39 139 -130 -2 -32 -3 -35 -6 -12 -10 85 -14 96 -46 115 -54 33 -134
26 -187 -17 -2 -2 -7 -25 -11 -51 l-6 -47 -2 43 c-2 61 17 90 111 170 46 39
102 90 126 115 36 36 41 45 27 51 -20 7 -124 -26 -172 -55 -76 -47 -116 -113
-133 -216 l-9 -58 4 60 c8 116 80 210 192 250 81 29 93 36 48 30 -93 -14 -185
-79 -225 -159 -11 -23 -20 -34 -20 -25 0 28 59 108 100 135 66 44 137 65 195
58 28 -4 51 -10 53 -15z m117 7 c83 -35 143 -107 184 -222 17 -48 20 -67 12
-104 -6 -31 -9 -36 -10 -18 -1 14 -4 35 -7 45 -5 15 -4 15 5 3 19 -26 13 13
-10 77 -39 104 -93 168 -176 209 -53 26 -52 32 2 10z m-1090 -5 c3 -5 1 -12
-5 -16 -5 -3 -10 1 -10 9 0 18 6 21 15 7z m1093 -32 c34 -16 73 -44 87 -61 28
-33 79 -127 72 -134 -2 -2 -14 18 -27 45 -31 67 -95 127 -166 156 -32 14 -52
25 -43 25 9 0 43 -14 77 -31z m-227 -19 c-89 -47 -113 -68 -162 -144 -29 -43
-39 -70 -40 -100 0 -23 -4 -50 -9 -61 -8 -20 -9 -20 -9 1 -3 84 39 175 114
245 33 32 148 98 170 98 6 0 -23 -17 -64 -39z m-4731 20 c0 -5 -2 -10 -4 -10
-3 0 -8 5 -11 10 -3 6 -1 10 4 10 6 0 11 -4 11 -10z m3212 -15 c3 -14 2 -28
-3 -31 -5 -2 -4 -16 1 -29 10 -28 2 -59 -17 -62 -7 -2 -13 3 -13 11 0 8 -16
37 -35 66 l-35 52 29 -7 c20 -4 33 -1 43 9 19 22 25 20 30 -9z m253 5 c3 -5
-3 -10 -15 -10 -12 0 -18 5 -15 10 3 6 10 10 15 10 5 0 12 -4 15 -10z m3305
-10 c0 -4 -11 -5 -25 -2 -14 2 -25 8 -25 12 0 4 11 5 25 2 14 -2 25 -8 25 -12z
m-84 -12 c-9 -5 -22 -7 -29 -4 -7 2 -4 5 6 5 9 1 17 6 17 12 0 5 5 7 11 3 8
-5 6 -10 -5 -16z m-2600 -143 c-2 -86 -5 -157 -7 -159 -2 -2 -15 8 -29 22 -14
13 -20 22 -14 19 6 -4 11 18 12 62 2 62 0 72 -24 101 -22 26 -25 33 -13 41 8
5 17 9 21 9 4 0 15 14 25 30 9 17 21 30 25 30 4 0 6 -70 4 -155z m-3106 68 c0
-83 -5 -79 -13 10 -4 43 -3 66 3 62 6 -3 10 -36 10 -72z m4640 47 c3 -4 14
-12 25 -18 18 -10 16 -11 -16 -12 -24 0 -39 5 -43 15 -3 8 -12 15 -21 15 -8 0
-15 7 -15 14 0 12 6 13 33 4 17 -6 34 -14 37 -18z m380 15 c0 -11 -13 -15 -55
-15 -62 0 -70 6 -23 18 54 14 78 13 78 -3z m895 0 c22 -8 31 -14 20 -14 -11 0
-31 6 -45 14 -32 18 -25 18 25 0z m-7095 -17 c0 -19 -18 -43 -26 -35 -4 3 -2
13 4 20 7 8 9 17 5 20 -3 4 -1 7 5 7 7 0 12 -6 12 -12z m7170 -8 c0 -5 -4 -10
-9 -10 -6 0 -13 5 -16 10 -3 6 1 10 9 10 9 0 16 -4 16 -10z m-6533 -42 c-3 -8
-6 -5 -6 6 -1 11 2 17 5 13 3 -3 4 -12 1 -19z m1506 7 c-3 -9 -8 -14 -10 -11
-3 3 -2 9 2 15 9 16 15 13 8 -4z m854 -17 c-3 -7 -5 -2 -5 12 0 14 2 19 5 13
2 -7 2 -19 0 -25z m-50 -15 c-3 -10 -5 -4 -5 12 0 17 2 24 5 18 2 -7 2 -21 0
-30z m-2709 -14 c0 -27 -3 -37 -9 -28 -7 11 -9 9 -9 -5 0 -16 -3 -17 -12 -8
-17 17 -28 15 -28 -7 0 -11 -4 -22 -9 -25 -10 -6 -9 -2 3 54 11 47 17 55 28
39 7 -12 11 -11 21 4 7 9 13 17 14 17 1 0 1 -19 1 -41z m2896 6 c29 -29 64
-32 107 -9 24 12 34 13 45 3 8 -6 14 -15 14 -20 0 -14 -110 -22 -138 -10 -46
21 -73 42 -67 51 9 14 11 13 39 -15z m3973 -11 c-3 -3 -12 -4 -19 -1 -8 3 -5
6 6 6 11 1 17 -2 13 -5z m-7147 -19 c0 -8 -4 -15 -10 -15 -5 0 -10 7 -10 15 0
8 5 15 10 15 6 0 10 -7 10 -15z m1217 -37 c-3 -7 -5 -2 -5 12 0 14 2 19 5 13
2 -7 2 -19 0 -25z m5961 20 c7 -7 12 -16 12 -21 0 -5 -7 -1 -16 8 -9 9 -23 14
-31 11 -8 -3 -11 -1 -8 4 8 14 28 13 43 -2z m-4198 -2 c0 -2 -11 -6 -25 -8
-13 -3 -22 -1 -19 3 5 9 44 13 44 5z m-2880 -27 c0 -5 -4 -9 -10 -9 -5 0 -10
7 -10 16 0 8 5 12 10 9 6 -3 10 -10 10 -16z m2974 -3 c-3 -8 0 -17 7 -22 8 -5
10 -3 4 6 -5 9 -4 11 3 6 7 -4 9 -17 6 -31 -5 -20 -2 -23 20 -21 24 1 25 2 9
15 -17 13 -17 13 0 7 10 -3 23 -6 28 -6 6 0 8 -4 5 -9 -17 -28 100 -28 189 0
37 11 69 18 71 16 3 -2 -14 -28 -36 -58 -22 -30 -39 -63 -38 -74 4 -26 55 -37
140 -29 61 5 66 4 63 -13 -2 -10 -4 -26 -4 -36 -1 -27 -38 -52 -70 -49 -73 8
-192 -100 -135 -122 9 -3 21 -3 26 1 6 3 8 2 5 -3 -3 -6 3 -16 15 -23 16 -10
19 -10 12 1 -4 7 2 4 14 -6 12 -11 22 -23 22 -28 0 -10 -78 -112 -89 -116 -4
-1 -22 14 -41 33 -19 19 -40 35 -47 35 -7 0 -12 8 -11 18 4 31 -55 142 -75
142 -10 0 -15 5 -12 10 3 6 0 10 -7 11 -10 0 -10 2 0 6 18 7 4 23 -16 17 -14
-5 -15 -4 -2 5 8 6 12 11 8 11 -20 0 -24 3 -35 23 -17 30 -16 57 2 57 21 0 19
32 -4 52 -12 10 -18 24 -14 36 2 11 -1 30 -7 42 -8 15 -8 20 -1 16 6 -4 11 -3
11 3 0 5 -5 13 -10 16 -6 4 -8 11 -5 16 4 5 2 9 -3 9 -4 0 -8 13 -8 29 0 17 3
28 7 25 5 -2 6 -11 3 -18z m-2944 3 c0 -6 7 -8 16 -5 14 5 16 1 10 -34 -4 -26
-2 -40 5 -40 5 0 9 -12 7 -27 -2 -16 -8 -27 -15 -26 -6 1 -16 -11 -22 -27 -12
-37 -39 -40 -37 -5 0 14 3 25 6 25 3 0 6 10 6 23 2 24 7 42 19 71 6 13 4 21
-3 24 -15 5 -16 32 -2 32 6 0 10 -5 10 -11z m127 -11 c-3 -8 -6 -5 -6 6 -1 11
2 17 5 13 3 -3 4 -12 1 -19z m4460 -10 c-3 -7 -5 -2 -5 12 0 14 2 19 5 13 2
-7 2 -19 0 -25z m647 -7 c-4 -17 -9 -30 -11 -27 -3 2 -2 19 2 36 9 41 17 33 9
-9z m-3124 -24 c0 -60 -42 -94 -97 -77 -15 4 -21 9 -13 10 41 4 56 11 72 32
10 13 18 34 17 48 -2 40 1 46 11 30 5 -8 10 -28 10 -43z m747 21 c-8 -5 -6 -9
6 -14 9 -3 14 -10 12 -15 -3 -5 1 -22 10 -40 9 -17 18 -57 19 -89 2 -51 0 -58
-16 -55 -26 5 -34 -16 -12 -32 19 -14 19 -15 -1 -29 -17 -12 -21 -12 -34 1
-13 13 -12 21 7 67 12 30 22 66 22 81 0 31 -34 100 -44 90 -4 -4 -4 1 0 11 4
12 4 17 -2 13 -5 -3 -10 3 -10 13 0 10 4 16 8 14 4 -3 8 0 8 5 0 8 7 7 20 -1
13 -9 16 -15 7 -20z m2521 -3 c-3 -3 -9 2 -12 12 -6 14 -5 15 5 6 7 -7 10 -15
7 -18z m36 9 c3 -8 2 -12 -4 -9 -6 3 -10 10 -10 16 0 14 7 11 14 -7z m-2723
-57 c24 -46 21 -53 -12 -29 -13 9 -32 15 -41 14 -9 -2 -22 7 -29 19 -10 19 -8
25 12 40 28 21 41 13 70 -44z m1406 41 c-3 -8 -6 -5 -6 6 -1 11 2 17 5 13 3
-3 4 -12 1 -19z m-3692 2 c3 -5 -1 -10 -9 -10 -9 0 -16 5 -16 10 0 6 4 10 9
10 6 0 13 -4 16 -10z m1556 -21 c-5 -13 -10 -19 -10 -12 -1 15 10 45 15 40 3
-2 0 -15 -5 -28z m771 -3 c6 4 8 3 5 -2 -3 -6 -2 -16 4 -24 7 -12 9 -11 9 5 0
16 4 14 21 -12 18 -28 20 -41 13 -85 l-8 -53 -7 43 c-5 24 -17 51 -27 60 -11
9 -22 33 -25 52 -3 19 -3 29 0 22 2 -6 10 -9 15 -6z m1845 -18 c-3 -8 -6 -5
-6 6 -1 11 2 17 5 13 3 -3 4 -12 1 -19z m175 15 c-10 -4 -9 -9 4 -24 21 -24 3
-25 -31 -3 -34 22 -31 31 8 31 17 1 26 -1 19 -4z m385 -18 c-32 -28 -57 -34
-36 -9 10 13 10 17 -2 25 -10 6 -2 9 26 9 l40 -1 -28 -24z m-278 -1 c6 -6 -1
-11 -29 -19 -14 -4 -22 -4 -18 0 4 5 3 14 -4 22 -10 12 -7 13 18 7 16 -4 31
-8 33 -10z m188 9 c-4 -3 -2 -12 4 -20 12 -14 6 -16 -28 -7 -27 7 -30 21 -5
27 27 7 36 7 29 0z m-3067 -18 c0 -7 -30 -13 -34 -7 -3 4 4 9 15 9 10 1 19 0
19 -2z m3377 -17 c-3 -8 -6 -5 -6 6 -1 11 2 17 5 13 3 -3 4 -12 1 -19z m22
-62 c-23 -20 -23 -20 -6 0 9 11 18 31 18 45 l2 24 4 -24 c3 -16 -3 -31 -18
-45z m-1239 17 c47 -70 25 -148 -54 -186 -58 -27 -105 -20 -133 22 -13 19 -23
49 -23 67 0 31 2 32 53 40 28 5 57 8 64 7 6 0 26 15 45 34 18 19 26 31 17 28
-10 -4 -20 -2 -24 4 -4 7 0 8 11 4 12 -4 15 -3 10 5 -4 7 -4 12 1 12 4 0 19
-17 33 -37z m-2725 7 c-1 -11 -4 -22 -7 -25 -4 -5 -4 34 1 43 4 8 7 -1 6 -18z
m226 -7 c13 -16 12 -17 -3 -4 -10 7 -18 15 -18 17 0 8 8 3 21 -13z m3806 -5
c-3 -8 -6 -5 -6 6 -1 11 2 17 5 13 3 -3 4 -12 1 -19z m160 0 c-3 -8 -6 -5 -6
6 -1 11 2 17 5 13 3 -3 4 -12 1 -19z m1440 16 c-3 -3 -12 -4 -19 -1 -8 3 -5 6
6 6 11 1 17 -2 13 -5z m-4 -31 c-7 -2 -19 -2 -25 0 -7 3 -2 5 12 5 14 0 19 -2
13 -5z m-6987 -25 c4 -6 3 -8 -3 -5 -5 3 -22 -1 -38 -9 -29 -15 -29 -15 -10 6
20 22 40 26 51 8z m-90 -25 c-10 -10 -19 5 -10 18 6 11 8 11 12 0 2 -7 1 -15
-2 -18z m3014 23 c0 -3 -4 -8 -10 -11 -5 -3 -10 -1 -10 4 0 6 5 11 10 11 6 0
10 -2 10 -4z m-3050 -16 c0 -5 -5 -10 -11 -10 -5 0 -7 5 -4 10 3 6 8 10 11 10
2 0 4 -4 4 -10z m1469 -54 c-3 -3 -11 5 -18 17 -13 21 -12 21 5 5 10 -10 16
-20 13 -22z m76 8 c9 -15 12 -23 6 -20 -11 7 -35 46 -28 46 3 0 12 -12 22 -26z
m2090 -54 c3 -6 -1 -7 -9 -4 -18 7 -21 14 -7 14 6 0 13 -4 16 -10z m-2895 -21
c0 -5 -7 -9 -15 -9 -15 0 -20 12 -9 23 8 8 24 -1 24 -14z m1800 5 c0 -2 -7 -4
-15 -4 -8 0 -15 4 -15 10 0 5 7 7 15 4 8 -4 15 -8 15 -10z m1724 -271 c-1
-159 -3 -289 -3 -290 -1 -1 -45 14 -98 34 -54 19 -103 35 -110 36 -7 0 -10 4
-8 8 3 4 -17 15 -43 24 -44 16 -50 22 -62 64 -16 53 -18 110 -7 199 5 39 4 62
-2 62 -21 0 -34 -192 -18 -255 5 -21 5 -26 -3 -15 -8 13 -10 12 -10 -5 -1 -17
-3 -16 -12 5 -19 48 8 310 32 295 4 -3 13 22 21 54 l12 58 27 -26 c30 -30 36
-32 106 -39 65 -5 116 11 151 49 15 16 28 29 29 29 0 0 -1 -129 -2 -287z
m-4354 259 c0 -13 -12 -22 -22 -16 -10 6 -1 24 13 24 5 0 9 -4 9 -8z m3044
-10 c50 11 61 7 64 -28 3 -34 10 -43 22 -24 7 11 10 1 10 -33 0 -43 -3 -49
-32 -67 -45 -27 -90 -34 -132 -20 -29 9 -35 17 -41 50 -12 74 13 134 50 120
10 -4 37 -3 59 2z m-2469 -22 c3 -5 -1 -10 -10 -10 -9 0 -13 5 -10 10 3 6 8
10 10 10 2 0 7 -4 10 -10z m2655 -49 c0 -11 -20 -36 -20 -26 0 6 -5 3 -10 -5
-7 -10 -10 -11 -10 -2 0 7 7 15 15 18 12 5 13 9 4 20 -10 12 -9 13 5 8 9 -3
16 -9 16 -13z m-2200 -26 c0 -5 -5 -3 -10 5 -5 8 -10 20 -10 25 0 6 5 3 10 -5
5 -8 10 -19 10 -25z m1635 24 c11 -16 1 -19 -13 -3 -7 8 -8 14 -3 14 5 0 13
-5 16 -11z m3340 -19 c-3 -5 -16 -15 -28 -21 -22 -12 -22 -12 -3 10 19 21 43
30 31 11z m515 0 c0 -5 -21 -21 -46 -36 l-46 -27 -40 23 c-22 12 -52 26 -66
30 l-27 8 25 1 c14 1 44 -9 66 -21 l41 -22 44 27 c51 31 49 30 49 17z m-3281
-12 c-1 -1 3 -14 10 -28 11 -24 11 -24 -3 -6 -15 18 -23 57 -10 44 3 -4 5 -8
3 -10z m3571 -17 c40 -26 120 -144 120 -174 0 -14 -69 93 -70 108 0 6 -17 21
-38 35 -67 44 -86 60 -70 60 8 0 34 -13 58 -29z m85 -22 l30 -32 -30 20 c-16
12 -39 31 -50 43 l-20 23 20 -11 c11 -6 34 -25 50 -43z m-1085 38 c0 -2 -12
-14 -27 -28 l-28 -24 24 28 c23 25 31 32 31 24z m100 -12 c0 -3 -15 -22 -34
-42 -18 -21 -37 -51 -43 -67 -5 -16 -25 -40 -44 -54 l-34 -25 31 29 c18 16 34
41 38 55 7 31 86 126 86 104z m-5660 -15 c0 -5 -7 -10 -15 -10 -8 0 -15 5 -15
10 0 6 7 10 15 10 8 0 15 -4 15 -10z m6060 0 c-8 -5 -28 -10 -45 -11 l-30 -2
33 -6 c35 -6 44 -24 16 -29 -10 -3 -14 0 -10 7 4 6 0 11 -9 11 -9 0 -14 -4
-11 -9 4 -5 0 -12 -6 -14 -7 -3 6 -6 28 -6 28 -1 44 -6 48 -17 6 -16 42 -12
61 9 7 7 4 8 -7 4 -10 -4 -18 -2 -18 3 0 6 -12 10 -27 11 -25 0 -26 1 -8 9 16
7 17 9 3 9 -9 1 -19 5 -23 11 -7 11 54 -8 73 -23 7 -5 15 -7 19 -3 3 3 1 6 -5
6 -7 0 -12 5 -12 12 0 16 39 -22 58 -57 9 -16 15 -36 13 -44 -1 -7 2 -10 8 -6
6 3 11 3 11 0 0 -3 7 -40 16 -83 17 -81 14 -136 -12 -252 -15 -67 -30 -86 -51
-68 -15 12 -28 5 -19 -11 4 -5 15 -8 26 -6 11 2 20 1 20 -3 -1 -13 -70 -117
-70 -104 0 6 -12 12 -27 12 -24 1 -26 2 -10 11 9 5 23 7 30 3 6 -4 9 -4 5 1
-4 4 0 14 10 21 22 16 7 32 -18 17 -15 -10 -21 -9 -32 4 -11 14 -10 15 12 8
24 -7 24 -7 5 8 -18 14 -22 14 -39 -1 -18 -16 -19 -16 -13 0 3 9 -1 24 -8 35
-8 10 -15 26 -15 36 0 9 -4 17 -10 17 -9 0 -14 -15 -11 -34 2 -10 -19 -36 -29
-36 -4 0 -10 7 -13 14 -4 10 -1 13 9 9 21 -8 17 10 -6 25 -12 7 -20 8 -20 2 0
-5 -5 -9 -11 -8 -6 2 -16 -4 -22 -13 -8 -13 -5 -22 12 -40 12 -13 19 -29 17
-36 -3 -7 2 -13 11 -13 13 0 13 -3 2 -16 -10 -12 -10 -20 -1 -34 7 -12 8 -21
2 -25 -15 -9 -130 104 -130 127 0 21 21 20 28 -2 3 -8 0 -10 -8 -5 -9 5 -11 4
-6 -4 4 -6 12 -8 18 -5 7 5 9 1 5 -9 -4 -12 -2 -14 10 -10 12 5 15 2 10 -10
-4 -11 1 -21 15 -28 16 -9 19 -8 13 2 -6 9 -3 11 9 6 10 -4 15 -3 11 4 -4 5
-15 7 -26 4 -13 -5 -17 -2 -14 7 8 20 -45 79 -65 73 -23 -7 -72 91 -74 149 0
25 -4 48 -8 52 -12 11 -9 92 2 99 6 4 8 16 5 28 -5 18 -4 19 5 7 9 -12 11 -10
6 11 -7 32 17 105 34 101 6 -1 8 2 5 8 -9 15 25 52 42 45 8 -2 11 0 8 5 -12
20 77 50 150 50 49 0 65 -3 55 -10z m-5605 -10 c-3 -5 -16 -10 -28 -9 -20 1
-20 2 3 9 14 4 26 8 28 9 2 1 0 -3 -3 -9z m2527 -77 c15 -15 45 -46 68 -67 37
-36 55 -75 62 -136 3 -21 -2 -25 -34 -30 -23 -4 -39 -3 -41 4 -2 6 -11 4 -21
-7 -22 -22 -36 -22 -36 1 -1 16 -1 16 -14 0 -15 -20 -36 -24 -36 -7 0 6 -6 9
-12 6 -7 -2 -12 -9 -11 -15 2 -8 -6 -8 -28 0 -24 8 -33 8 -39 -2 -9 -15 -21
-15 -30 0 -10 16 -50 -4 -50 -25 0 -17 20 -31 29 -19 9 13 33 16 40 6 7 -11
71 -27 71 -18 0 3 -15 10 -32 15 -30 8 -28 9 27 11 33 0 94 5 135 10 184 24
180 24 180 7 0 -27 22 -67 38 -67 11 0 12 10 7 53 -10 69 -18 78 -66 71 l-39
-7 0 49 c0 47 1 48 16 26 8 -12 22 -22 30 -22 20 0 18 8 -13 35 -16 13 -22 25
-15 25 6 0 12 -5 12 -10 0 -10 13 -10 118 5 36 5 52 4 53 -4 1 -6 2 -14 3 -18
1 -5 6 -63 10 -130 7 -110 10 -123 26 -123 45 0 136 -198 155 -337 18 -137
-99 -286 -226 -287 -44 0 -47 -2 -72 -47 -31 -54 -73 -88 -159 -129 -52 -25
-76 -30 -134 -30 -70 0 -73 1 -104 37 -36 40 -69 107 -70 137 0 14 10 5 29
-26 36 -57 47 -64 56 -35 6 22 7 21 17 -5 10 -29 38 -39 38 -14 0 8 3 23 6 33
6 16 5 16 -9 -2 -15 -19 -15 -19 -28 8 -7 16 -15 23 -19 17 -8 -13 -60 -3 -60
12 0 5 5 6 11 3 5 -4 -2 11 -18 33 -20 28 -32 38 -43 32 -8 -4 -24 -4 -35 0
-18 6 -20 16 -20 81 0 62 -4 79 -24 107 -36 51 -39 104 -8 151 15 22 29 52 32
68 13 57 38 109 71 150 19 23 30 44 26 47 -5 3 -34 3 -65 1 l-57 -5 0 65 c0
36 4 64 9 62 5 -1 9 3 9 8 0 6 -4 9 -9 8 -5 -2 -9 39 -10 90 -1 50 -3 112 -5
137 -2 25 0 40 4 34 20 -32 122 -34 189 -4 23 10 43 16 46 14 2 -3 10 2 17 11
8 10 9 15 1 15 -6 0 -11 -5 -11 -12 0 -6 -3 -9 -6 -6 -3 3 1 16 8 27 13 21 13
21 23 -8 5 -16 22 -42 37 -58z m-2707 68 c-6 -5 -28 -12 -50 -15 l-40 -6 40
14 c50 17 62 19 50 7z m78 2 c-7 -2 -19 -2 -25 0 -7 3 -2 5 12 5 14 0 19 -2
13 -5z m5323 -25 c-14 -18 -32 -44 -40 -58 -22 -39 -46 -171 -46 -251 0 -67
-2 -73 -34 -105 -19 -19 -40 -34 -47 -34 -8 0 3 11 22 25 46 30 49 39 49 136
0 109 31 221 76 276 20 24 38 43 41 43 3 0 -6 -15 -21 -32z m-5147 6 c13 -11
-8 -10 -34 2 l-30 13 30 -6 c17 -3 32 -7 34 -9z m-349 -19 c0 -2 -10 -9 -22
-15 -22 -11 -22 -10 -4 4 21 17 26 19 26 11z m6618 -26 c-3 -8 -7 -3 -11 10
-4 17 -3 21 5 13 5 -5 8 -16 6 -23z m-6718 -56 c-30 -32 -55 -60 -57 -63 -2
-2 -1 4 2 15 6 16 3 15 -14 -5 -11 -14 -21 -29 -21 -34 0 -5 -3 -7 -6 -3 -8 8
35 69 45 63 4 -3 27 15 51 39 63 64 63 55 0 -12z m554 49 c3 -5 -1 -9 -9 -9
-8 0 -12 4 -9 9 3 4 7 8 9 8 2 0 6 -4 9 -8z m56 -2 c-13 -8 -10 -12 10 -12 3
0 20 -24 38 -52 l33 -51 -31 32 c-16 18 -30 36 -30 40 0 5 -9 14 -20 21 -21
13 -19 32 3 32 7 0 6 -4 -3 -10z m2930 -5 c0 -8 -8 -34 -17 -57 -12 -30 -13
-43 -5 -46 21 -7 15 -85 -8 -105 -22 -18 -27 -52 -9 -63 6 -3 24 6 39 21 27
26 33 28 90 22 33 -4 73 -13 88 -21 15 -7 33 -11 41 -8 8 3 11 0 7 -7 -13 -21
6 -36 21 -16 8 12 13 14 13 6 0 -7 6 -11 14 -8 11 4 13 1 9 -10 -5 -12 -1 -14
15 -9 14 5 24 1 30 -10 5 -10 14 -14 21 -9 9 5 7 11 -6 22 -17 13 -17 13 3 4
12 -6 24 -7 28 -4 3 3 6 1 6 -5 0 -7 9 -12 19 -12 23 0 37 -30 19 -42 -9 -5
-10 -8 -1 -8 7 0 16 8 22 18 8 13 14 15 27 6 10 -6 20 -16 22 -22 5 -15 -135
-16 -175 -1 -17 6 -29 7 -31 1 -2 -6 -17 -6 -37 -2 -22 5 -35 4 -35 -2 0 -11
-404 -8 -414 3 -6 6 -28 281 -22 286 1 2 15 4 30 5 15 1 62 21 104 44 88 48
92 49 92 29z m70 5 c0 -5 -4 -10 -10 -10 -5 0 -10 5 -10 10 0 6 5 10 10 10 6
0 10 -4 10 -10z m3120 -233 c-5 -95 -15 -175 -26 -212 -22 -77 -15 -102 39
-145 43 -34 93 -97 84 -106 -2 -3 -12 7 -22 22 -9 15 -44 52 -76 84 -65 62
-66 67 -32 170 15 45 33 285 27 370 l-3 45 8 -38 c4 -21 5 -107 1 -190z
m-3512 206 c-10 -2 -26 -2 -35 0 -10 3 -2 5 17 5 19 0 27 -2 18 -5z m390 -28
c0 -14 -4 -28 -9 -31 -4 -2 -4 -16 1 -29 8 -21 7 -25 -10 -25 -11 0 -20 5 -20
10 0 6 5 10 11 10 7 0 5 10 -6 26 -9 14 -14 28 -11 32 3 3 6 0 6 -6 0 -7 5
-12 10 -12 6 0 8 11 4 25 -4 18 -2 25 9 25 9 0 15 -10 15 -25z m1979 -7 c-3
-8 -6 -5 -6 6 -1 11 2 17 5 13 3 -3 4 -12 1 -19z m1110 0 c-3 -8 -6 -5 -6 6
-1 11 2 17 5 13 3 -3 4 -12 1 -19z m-7106 -31 c-8 -8 -11 -7 -11 4 0 20 13 34
18 19 3 -7 -1 -17 -7 -23z m1789 -2 c14 -19 14 -19 -2 -6 -10 7 -18 18 -18 24
0 6 1 8 3 6 1 -2 9 -13 17 -24z m4191 -46 c-5 -31 -5 -96 0 -153 6 -55 7 -106
4 -113 -3 -10 -15 -12 -38 -8 -41 8 -90 -11 -158 -61 -51 -37 -69 -38 -22 0
81 63 108 76 161 76 l53 0 -8 73 c-9 85 -9 206 1 232 12 32 16 10 7 -46z
m1078 -261 c-39 -116 -60 -190 -57 -209 6 -36 1 -37 -12 -3 -8 20 -2 48 31
142 67 190 89 271 91 336 l2 61 3 -74 c4 -68 0 -86 -58 -253z m-1229 308 c0
-2 -7 -7 -16 -10 -8 -3 -12 -2 -9 4 6 10 25 14 25 6z m1367 -28 c-3 -7 -5 -2
-5 12 0 14 2 19 5 13 2 -7 2 -19 0 -25z m-5994 -8 c-3 -12 -8 -19 -11 -16 -5
6 5 36 12 36 2 0 2 -9 -1 -20z m-82 -7 c13 -16 12 -17 -3 -4 -10 7 -18 15 -18
17 0 8 8 3 21 -13z m5934 -136 c-20 -98 -53 -182 -100 -252 -24 -37 -35 -65
-35 -92 -1 -32 -2 -35 -11 -20 -15 26 -4 63 41 132 46 71 86 186 103 293 7 47
13 66 15 49 2 -16 -4 -65 -13 -110z m-6732 108 c-3 -9 -8 -14 -10 -11 -3 3 -2
9 2 15 9 16 15 13 8 -4z m6713 -46 c-10 -72 -54 -206 -81 -248 -13 -20 -46
-61 -74 -91 -54 -58 -55 -60 -45 -110 6 -26 15 -35 53 -52 103 -46 154 -75
189 -107 l37 -33 -36 25 c-67 48 -134 83 -181 96 -39 11 -50 20 -69 55 -29 55
-22 78 44 146 85 88 124 167 148 300 14 81 25 94 15 19z m148 -77 c-9 -175 -3
-209 51 -275 67 -81 77 -117 80 -297 l3 -155 -8 156 c-9 179 -21 218 -91 294
l-43 47 -4 94 c-4 91 5 264 14 264 3 0 2 -58 -2 -128z m-1817 112 c-3 -3 -12
-4 -19 -1 -8 3 -5 6 6 6 11 1 17 -2 13 -5z m-4117 -27 c0 -2 -11 -18 -25 -37
-14 -19 -25 -29 -25 -23 0 6 9 22 21 37 18 23 29 32 29 23z m-1082 -38 c-2 -6
-8 -10 -13 -10 -5 0 -11 4 -13 10 -2 6 4 11 13 11 9 0 15 -5 13 -11z m600 -20
c-3 -8 -7 -3 -11 10 -4 17 -3 21 5 13 5 -5 8 -16 6 -23z m-311 -1 c-3 -8 -6
-5 -6 6 -1 11 2 17 5 13 3 -3 4 -12 1 -19z m6364 5 c12 -14 12 -16 0 -9 -9 6
-12 5 -8 -5 2 -8 -14 -33 -36 -56 -28 -29 -36 -43 -25 -43 16 0 128 78 158
110 8 9 11 10 6 2 -7 -9 -5 -17 5 -24 11 -8 11 -9 -3 -4 -25 7 -30 -8 -8 -22
16 -10 22 -7 39 15 12 14 21 30 21 36 0 6 3 8 6 5 8 -9 -14 -47 -47 -83 -27
-28 -42 -84 -19 -70 6 3 10 -1 10 -11 0 -9 -37 -55 -83 -103 -46 -47 -96 -104
-112 -126 -32 -44 -45 -56 -56 -49 -4 2 -5 -6 -2 -18 l5 -23 -17 23 c-12 16
-20 20 -29 13 -11 -9 -56 -5 -56 5 0 2 16 36 36 76 34 65 49 132 53 235 1 18
40 26 56 13 9 -8 15 -8 15 -2 0 6 -6 12 -12 15 -10 3 -10 7 1 20 9 11 10 17 2
17 -6 0 -11 -4 -11 -10 0 -5 -10 -14 -22 -20 -13 -6 4 14 36 44 37 34 65 52
74 48 10 -3 13 -1 8 6 -11 18 0 14 15 -5z m-6607 -9 c3 -8 2 -12 -4 -9 -6 3
-10 10 -10 16 0 14 7 11 14 -7z m5588 -74 c-29 -28 -56 -50 -60 -50 -4 0 17
23 47 50 29 28 56 50 60 50 3 0 -18 -23 -47 -50z m1128 -30 c0 -5 -5 -10 -11
-10 -5 0 -7 5 -4 10 3 6 8 10 11 10 2 0 4 -4 4 -10z m-1280 -10 c0 -5 -5 -10
-11 -10 -5 0 -7 5 -4 10 3 6 8 10 11 10 2 0 4 -4 4 -10z m-4310 -5 c0 -6 -76
-45 -87 -45 -4 1 12 12 37 25 50 27 50 27 50 20z m4270 -5 c0 -5 -7 -10 -15
-10 -8 0 -15 5 -15 10 0 6 7 10 15 10 8 0 15 -4 15 -10z m-5363 -22 c-3 -8 -6
-5 -6 6 -1 11 2 17 5 13 3 -3 4 -12 1 -19z m-10 -55 c-3 -10 -5 -4 -5 12 0 17
2 24 5 18 2 -7 2 -21 0 -30z m5394 20 c13 -16 12 -17 -3 -4 -10 7 -18 15 -18
17 0 8 8 3 21 -13z m382 -14 c28 -7 42 -7 52 1 10 8 13 6 11 -14 0 -14 -5 -21
-11 -17 -14 11 -99 31 -132 31 -53 0 -100 -20 -148 -62 -27 -23 -43 -34 -37
-23 42 79 155 115 265 84z m-4949 -15 c3 -8 2 -12 -4 -9 -6 3 -10 10 -10 16 0
14 7 11 14 -7z m4597 -11 c13 -16 12 -17 -3 -4 -10 7 -18 15 -18 17 0 8 8 3
21 -13z m562 -100 c19 -17 33 -33 31 -36 -3 -3 10 -8 28 -12 29 -7 30 -9 13
-16 -13 -5 -15 -8 -5 -9 10 0 6 -6 -10 -15 l-25 -15 26 6 c18 4 28 1 32 -9 4
-12 -1 -13 -35 -5 -22 5 -58 7 -79 4 -22 -2 -39 -1 -39 4 0 11 57 23 70 15 5
-3 18 -1 27 5 16 9 15 10 -4 5 -21 -6 -33 8 -15 18 4 2 1 2 -5 1 -7 -2 -13 4
-13 12 0 13 -9 15 -45 12 -47 -3 -53 0 -33 20 7 7 8 12 4 12 -5 0 -3 6 3 14
16 19 -6 57 -27 48 -10 -3 -13 -1 -8 6 4 7 2 12 -3 12 -6 0 -11 -4 -11 -10 0
-5 -9 -10 -21 -10 -15 0 -19 -5 -15 -15 4 -10 -1 -15 -15 -15 -14 0 -19 5 -16
14 4 9 -1 17 -11 19 -9 3 -1 5 19 6 19 0 44 7 55 15 13 10 23 11 32 4 10 -8
11 -6 6 8 -4 10 6 1 23 -21 16 -22 46 -54 66 -72z m-5178 39 c-4 -9 -8 -27 -9
-40 -1 -12 -11 -32 -23 -44 l-22 -21 9 34 c4 19 15 48 24 64 9 17 17 39 17 50
1 17 2 16 6 -3 3 -13 1 -31 -2 -40z m4126 11 c-9 -15 -10 -12 -10 17 0 29 1
32 10 18 7 -12 7 -24 0 -35z m535 5 l19 -21 -27 18 c-29 18 -34 25 -20 25 5 0
17 -10 28 -22z m287 15 c-7 -2 -19 -2 -25 0 -7 3 -2 5 12 5 14 0 19 -2 13 -5z
m422 -11 c-3 -3 -11 0 -18 7 -9 10 -8 11 6 5 10 -3 15 -9 12 -12z m-5195 -7
c0 -8 -2 -15 -4 -15 -2 0 -6 7 -10 15 -3 8 -1 15 4 15 6 0 10 -7 10 -15z
m3785 -5 c3 -5 2 -10 -4 -10 -5 0 -13 5 -16 10 -3 6 -2 10 4 10 5 0 13 -4 16
-10z m-4835 -7 c0 -5 -5 -15 -10 -23 -8 -12 -10 -11 -10 8 0 12 5 22 10 22 6
0 10 -3 10 -7z m10 -30 c-11 -17 -11 -17 -6 0 3 10 6 24 7 30 0 9 2 9 5 0 3
-7 0 -20 -6 -30z m887 5 c-3 -8 -6 -5 -6 6 -1 11 2 17 5 13 3 -3 4 -12 1 -19z
m5235 0 c-7 -7 -12 -8 -12 -2 0 14 12 26 19 19 2 -3 -1 -11 -7 -17z m-5842
-13 c0 -13 -12 -14 -48 -6 -2 1 0 6 3 11 10 16 45 12 45 -5z m90 -6 c0 -5 -7
-9 -15 -9 -15 0 -20 12 -9 23 8 8 24 -1 24 -14z m726 -4 c-20 -15 -36 -19 -36
-10 0 5 38 23 50 24 3 0 -4 -6 -14 -14z m674 -10 c13 -14 21 -25 18 -25 -2 0
-15 11 -28 25 -13 14 -21 25 -18 25 2 0 15 -11 28 -25z m-1764 -26 c-9 -19
-15 -29 -16 -22 0 15 22 64 27 60 2 -2 -3 -19 -11 -38z m870 -7 c-11 -10 -15
4 -8 28 l7 25 3 -23 c2 -13 1 -26 -2 -30z m5274 18 c5 0 14 8 20 18 11 16 11
16 6 -1 -4 -12 -2 -17 6 -14 7 2 23 0 36 -4 14 -6 21 -5 17 1 -3 5 3 14 14 19
30 16 33 13 15 -14 -18 -28 -58 -33 -112 -14 -23 8 -29 15 -24 27 6 16 7 16
10 0 2 -10 7 -18 12 -18z m-5212 -253 c6 -97 14 -152 25 -173 9 -17 13 -34 10
-38 -4 -3 -30 -6 -59 -6 -42 0 -58 5 -74 22 -24 26 -34 60 -27 88 7 26 -10 36
-18 11 -8 -27 4 -88 21 -102 8 -6 14 -15 14 -19 0 -11 -48 -30 -75 -30 -29 0
-65 43 -65 77 0 40 22 116 42 145 10 14 27 46 37 70 l20 43 0 -40 c1 -44 15
-65 42 -65 23 0 29 20 29 106 0 56 5 81 20 106 11 18 20 42 21 53 3 55 30
-124 37 -248z m4991 246 c14 10 14 10 3 -5 -8 -9 -11 -23 -7 -30 4 -7 -3 -2
-14 12 -13 16 -21 20 -21 11 0 -8 -3 -12 -6 -8 -3 3 -3 11 1 17 5 8 10 9 18 1
7 -7 15 -7 26 2z m91 -24 c0 -5 -9 -9 -20 -9 -19 0 -26 11 -14 23 8 8 34 -3
34 -14z m939 -33 c75 -71 84 -103 87 -311 l2 -180 -7 165 c-10 202 -14 223
-59 282 -32 43 -56 59 -122 86 -21 9 -19 10 15 5 29 -4 52 -17 84 -47z m-6093
33 c3 -6 -3 -21 -15 -33 -19 -18 -23 -19 -31 -6 -14 21 -12 27 5 27 9 0 14 -6
11 -14 -3 -8 -1 -11 5 -8 5 4 7 15 4 26 -7 20 9 26 21 8z m-876 -34 c0 -5 -5
-3 -10 5 -5 8 -10 20 -10 25 0 6 5 3 10 -5 5 -8 10 -19 10 -25z m296 -2 c-1
-1 -12 0 -24 4 -18 4 -20 8 -11 19 10 12 14 11 24 -3 8 -10 12 -19 11 -20z
m2219 27 c3 -5 1 -10 -4 -10 -6 0 -11 5 -11 10 0 6 2 10 4 10 3 0 8 -4 11 -10z
m-2137 -18 c2 -7 -5 -12 -17 -12 -14 0 -19 5 -14 15 6 17 25 15 31 -3z m5540
-4 c9 -11 10 -18 2 -23 -6 -4 -9 -1 -8 7 2 7 -5 12 -15 12 -14 -2 -15 1 -6 12
7 8 12 13 13 12 1 -2 7 -10 14 -20z m47 1 c-5 -15 -4 -19 4 -15 6 4 11 2 11
-3 0 -15 -15 -14 -29 2 -8 10 -7 17 1 25 17 17 20 15 13 -9z m854 -15 c14 -12
-19 -1 -35 12 -18 14 -18 14 6 3 14 -6 27 -13 29 -15z m-5689 6 c0 -5 -4 -10
-10 -10 -5 0 -10 5 -10 10 0 6 5 10 10 10 6 0 10 -4 10 -10z m3626 -56 l4 -39
-13 41 c-8 23 -18 47 -22 55 -5 10 -3 9 9 -2 9 -8 19 -33 22 -55z m-4831 17
c0 -14 -7 -26 -15 -28 -12 -4 -13 -3 -1 5 15 11 9 42 -8 42 -6 0 -8 -6 -5 -14
7 -17 -12 -31 -21 -16 -9 15 15 42 34 38 9 -2 16 -13 16 -27z m6495 9 c0 -4
-7 -13 -15 -20 -8 -7 -15 -19 -15 -26 0 -8 -9 -23 -20 -34 -22 -22 -27 -45 -7
-34 6 4 8 3 4 -1 -15 -17 -36 -14 -30 3 5 14 3 14 -15 -2 -12 -11 -22 -25 -22
-33 0 -7 -5 -13 -11 -13 -5 0 -7 -6 -3 -12 5 -8 0 -7 -11 2 -19 15 -19 15 -1
-15 l19 -30 -26 18 c-31 20 -37 21 -37 6 0 -5 5 -7 11 -3 7 4 4 -7 -6 -24 -10
-17 -23 -28 -28 -25 -4 3 -8 -1 -6 -8 1 -8 1 -21 0 -29 -1 -13 -2 -13 -12 0
-9 12 -10 11 -6 -8 3 -12 1 -19 -4 -16 -5 3 -16 -10 -24 -28 -8 -18 -14 -26
-14 -18 -1 56 232 376 265 363 8 -3 14 -9 14 -13z m60 -9 c10 -19 10 -22 -1
-16 -9 6 -10 3 -5 -11 4 -10 4 -15 -1 -11 -4 5 -8 22 -9 38 -2 34 -2 34 16 0z
m414 5 c29 -14 56 -32 60 -42 6 -17 6 -17 -11 -2 -10 9 -40 28 -68 42 -64 32
-51 34 19 2z m-6907 -18 c-3 -7 -5 -2 -5 12 0 14 2 19 5 13 2 -7 2 -19 0 -25z
m4858 -61 c18 -44 21 -114 4 -83 -9 14 -13 15 -19 6 -10 -15 -44 33 -46 65 -1
11 -5 40 -9 65 l-8 45 32 -31 c17 -18 38 -48 46 -67z m1121 50 c12 -26 12 -28
0 -14 -8 10 -17 14 -20 8 -13 -21 -56 4 -56 34 0 6 4 4 9 -3 6 -10 10 -10 21
2 15 20 26 13 46 -27z m1123 3 c0 -10 -3 -8 -9 5 -12 27 -12 43 0 25 5 -8 9
-22 9 -30z m-6239 -44 c-3 -41 -8 -77 -12 -81 -12 -12 -30 75 -22 108 6 28 19
46 34 47 3 0 3 -33 0 -74z m5594 57 c4 -10 4 -14 0 -10 -4 4 -16 -1 -27 -10
-20 -18 -20 -18 -2 10 20 32 21 32 29 10z m-5036 0 c-10 -2 -26 -2 -35 0 -10
3 -2 5 17 5 19 0 27 -2 18 -5z m995 0 c-7 -2 -21 -2 -30 0 -10 3 -4 5 12 5 17
0 24 -2 18 -5z m95 0 c-10 -2 -28 -2 -40 0 -13 2 -5 4 17 4 22 1 32 -1 23 -4z
m-2628 -29 c0 -2 -7 -4 -15 -4 -8 0 -15 4 -15 10 0 5 7 7 15 4 8 -4 15 -8 15
-10z m1290 2 c0 -2 -7 -7 -16 -10 -8 -3 -12 -2 -9 4 6 10 25 14 25 6z m5937
-103 c-2 -21 -4 -6 -4 32 0 39 2 55 4 38 2 -18 2 -50 0 -70z m-1101 65 c4 -7
3 -8 -4 -4 -7 4 -12 2 -12 -5 0 -7 -3 -10 -6 -6 -6 5 3 27 11 27 2 0 7 -5 11
-12z m988 -38 l6 -35 -14 35 c-17 42 -20 58 -7 45 5 -6 12 -26 15 -45z m-387
-12 c15 -21 13 -56 -4 -62 -9 -4 -18 -4 -21 -1 -3 3 0 5 6 5 7 0 12 5 12 11 0
6 -6 9 -14 6 -8 -3 -17 0 -19 7 -4 10 1 12 14 9 21 -6 22 -3 13 21 -3 9 -15
16 -26 16 -10 0 -16 5 -13 10 7 11 35 -1 52 -22z m-67 -28 c4 0 10 -7 14 -15
3 -9 0 -15 -9 -15 -8 0 -15 7 -15 15 0 8 -4 15 -9 15 -5 0 -6 10 -3 23 l7 22
3 -22 c2 -13 7 -23 12 -23z m-6635 20 c-3 -5 -12 -10 -18 -10 -7 0 -6 4 3 10
19 12 23 12 15 0z m93 -44 c-1 -30 -6 -52 -10 -50 -3 2 -8 1 -11 -3 -2 -5 -1
-1 1 7 3 8 7 34 10 58 6 61 14 52 10 -12z m6438 38 c-5 -14 -4 -15 9 -4 19 16
19 10 0 -26 -14 -27 -15 -27 -15 -6 0 12 -5 22 -11 22 -8 0 -8 5 1 15 16 20
24 19 16 -1z m-622 -34 c-6 -6 -10 -3 -10 10 0 13 4 16 10 10 7 -7 7 -13 0
-20z m-5909 10 c3 -5 1 -10 -4 -10 -6 0 -11 5 -11 10 0 6 2 10 4 10 3 0 8 -4
11 -10z m4909 -15 c3 -9 0 -12 -9 -9 -7 3 -16 12 -19 19 -3 9 0 12 9 9 7 -3
16 -12 19 -19z m1853 -30 c44 -60 49 -75 9 -30 -20 22 -36 35 -36 30 0 -6 5
-16 12 -23 6 -6 9 -15 5 -18 -4 -4 -13 8 -21 27 -9 19 -15 28 -16 20 0 -8 -3
-11 -6 -8 -4 4 -1 13 5 21 7 8 9 21 5 28 -11 20 8 -1 43 -47z m340 33 c-3 -8
-6 -5 -6 6 -1 11 2 17 5 13 3 -3 4 -12 1 -19z m-7157 -2 c0 -3 -4 -8 -10 -11
-5 -3 -10 -1 -10 4 0 6 5 11 10 11 6 0 10 -2 10 -4z m30 0 c0 -2 -8 -10 -17
-17 -16 -13 -17 -12 -4 4 13 16 21 21 21 13z m6593 -11 c-3 -9 -8 -14 -10 -11
-3 3 -2 9 2 15 9 16 15 13 8 -4z m-399 -16 c-3 -5 -10 -7 -15 -3 -5 3 -7 10
-3 15 3 5 10 7 15 3 5 -3 7 -10 3 -15z m422 5 c0 -9 5 -19 12 -21 8 -3 10 1 5
14 -3 10 -3 15 1 12 4 -4 9 -19 12 -35 l5 -29 -27 26 c-14 15 -23 32 -20 38
10 16 14 14 12 -5z m611 -66 c-2 -18 -4 -6 -4 27 0 33 2 48 4 33 2 -15 2 -42
0 -60z m-2187 68 c0 -3 -4 -8 -10 -11 -5 -3 -10 -1 -10 4 0 6 5 11 10 11 6 0
10 -2 10 -4z m2097 -48 c-2 -13 -4 -5 -4 17 -1 22 1 32 4 23 2 -10 2 -28 0
-40z m-7054 27 c-3 -9 -8 -14 -10 -11 -3 3 -2 9 2 15 9 16 15 13 8 -4z m4965
-7 c-11 -17 -26 -23 -54 -24 -31 -1 -32 -1 -8 3 18 2 40 13 50 24 23 26 30 24
12 -3z m1505 7 c-3 -9 -8 -14 -10 -11 -3 3 -2 9 2 15 9 16 15 13 8 -4z m554
-17 c-3 -7 -5 -2 -5 12 0 14 2 19 5 13 2 -7 2 -19 0 -25z m-6290 -36 c-12 -46
-5 -80 23 -110 20 -21 19 -49 0 -37 -5 3 -11 1 -14 -4 -9 -13 19 -7 38 8 9 8
16 9 16 3 0 -20 -91 -91 -137 -106 -59 -20 -115 -20 -178 2 l-50 17 -5 106 -5
107 37 -19 c71 -36 162 -20 247 45 19 14 36 26 37 26 0 0 -3 -17 -9 -38z
m5144 21 c13 -16 12 -17 -3 -4 -10 7 -18 15 -18 17 0 8 8 3 21 -13z m-3511 3
c0 -2 -7 -7 -16 -10 -8 -3 -12 -2 -9 4 6 10 25 14 25 6z m105 -6 c-3 -5 -12
-10 -18 -10 -7 0 -6 4 3 10 19 12 23 12 15 0z m2372 4 c-3 -3 -12 -4 -19 -1
-8 3 -5 6 6 6 11 1 17 -2 13 -5z m-4890 -26 c-3 -8 -6 -5 -6 6 -1 11 2 17 5
13 3 -3 4 -12 1 -19z m6193 6 c0 -8 -19 -13 -24 -6 -3 5 1 9 9 9 8 0 15 -2 15
-3z m410 2 c0 -2 -7 -7 -16 -10 -8 -3 -12 -2 -9 4 6 10 25 14 25 6z m-4257
-39 c-7 -12 -12 -12 -38 0 l-30 14 33 -5 c20 -4 32 -1 32 6 0 6 3 9 6 5 3 -3
2 -12 -3 -20z m210 16 c-7 -2 -21 -2 -30 0 -10 3 -4 5 12 5 17 0 24 -2 18 -5z
m1620 -25 c15 -26 15 -29 2 -18 -20 16 -39 50 -28 50 4 0 16 -14 26 -32z
m2004 0 c-3 -8 -6 -5 -6 6 -1 11 2 17 5 13 3 -3 4 -12 1 -19z m623 18 c0 -3
-4 -8 -10 -11 -5 -3 -10 -1 -10 4 0 6 5 11 10 11 6 0 10 -2 10 -4z m377 -128
c-2 -24 -4 -5 -4 42 0 47 2 66 4 43 2 -24 2 -62 0 -85z m-5677 102 c0 -5 -5
-10 -11 -10 -5 0 -7 5 -4 10 3 6 8 10 11 10 2 0 4 -4 4 -10z m1046 -18 c-4 -3
-14 2 -24 12 -16 18 -16 18 6 6 13 -6 21 -14 18 -18z m3984 18 c0 -5 -4 -10
-10 -10 -5 0 -2 -8 8 -18 9 -11 21 -17 26 -14 5 3 6 -1 1 -8 -6 -10 -4 -12 8
-7 11 4 14 2 10 -9 -5 -12 7 -19 30 -15 4 0 7 -3 7 -9 0 -20 -22 -9 -71 37
-36 34 -46 49 -37 55 18 11 28 10 28 -2z m289 -74 c1 -68 -5 -55 -12 24 -3 38
-1 57 3 45 5 -11 9 -42 9 -69z m-5319 34 c0 -5 -7 -7 -15 -4 -8 4 -12 10 -9
15 6 11 24 2 24 -11z m1030 0 c8 -5 11 -10 5 -10 -5 0 -17 5 -25 10 -8 5 -10
10 -5 10 6 0 17 -5 25 -10z m-1206 -25 c-4 -8 -10 -15 -15 -15 -4 0 -6 7 -3
15 4 8 10 15 15 15 4 0 6 -7 3 -15z m156 0 c7 -8 9 -15 6 -15 -4 0 -14 7 -22
15 -9 8 -11 15 -6 15 5 0 15 -7 22 -15z m-1423 -27 c-3 -7 -5 -2 -5 12 0 14 2
19 5 13 2 -7 2 -19 0 -25z m844 -5 c-5 -10 -27 -39 -50 -64 -74 -85 -211 -120
-325 -84 -31 10 -59 22 -62 27 -12 19 6 19 47 -2 35 -18 55 -21 118 -18 102 4
178 40 229 109 35 47 62 67 43 32z m481 -18 c-2 -19 -6 -35 -8 -35 -2 0 -4 16
-4 35 0 19 4 35 8 35 4 0 6 -16 4 -35z m1065 13 c-3 -8 -6 -5 -6 6 -1 11 2 17
5 13 3 -3 4 -12 1 -19z m-1335 3 c72 -6 93 -12 122 -34 31 -24 35 -25 39 -9 4
13 5 11 6 -5 1 -29 -3 -29 -53 1 -38 21 -125 36 -248 40 -16 1 -28 4 -28 9 0
9 46 8 162 -2z m326 -22 c-3 -8 -7 -3 -11 10 -4 17 -3 21 5 13 5 -5 8 -16 6
-23z m26 15 c3 -8 2 -12 -4 -9 -6 3 -10 10 -10 16 0 14 7 11 14 -7z m407 -26
c-4 -17 -13 -34 -20 -36 -8 -3 -11 0 -8 5 4 6 11 22 16 37 14 36 20 33 12 -6z
m556 10 c-3 -8 -6 -5 -6 6 -1 11 2 17 5 13 3 -3 4 -12 1 -19z m-1020 -20 c-3
-7 -5 -2 -5 12 0 14 2 19 5 13 2 -7 2 -19 0 -25z m377 -3 c3 -8 1 -15 -3 -15
-5 0 -11 7 -15 15 -3 8 -1 15 3 15 5 0 11 -7 15 -15z m4904 -2 c-7 -9 -6 -18
3 -30 9 -11 3 -9 -19 6 -36 25 -35 40 2 37 18 -1 22 -4 14 -13z m-4873 -3 c3
-5 1 -10 -4 -10 -6 0 -11 5 -11 10 0 6 2 10 4 10 3 0 8 -4 11 -10z m-507 -7
c0 -5 3 -17 7 -27 8 -19 9 -19 17 0 8 18 8 18 5 -1 -1 -11 4 -26 13 -33 13
-11 13 -11 -2 -6 -21 7 -23 -6 -5 -25 10 -11 9 -13 -6 -8 -15 6 -17 3 -12 -16
5 -16 4 -18 -4 -7 -5 8 -7 27 -4 42 3 17 -1 37 -11 53 -19 28 -20 35 -6 35 6
0 9 -3 8 -7z m576 -18 c-4 -8 -1 -22 6 -30 8 -9 8 -15 2 -15 -13 0 -26 36 -17
50 9 15 15 12 9 -5z m351 -25 c16 -18 16 -20 2 -20 -11 0 -15 -6 -11 -17 4
-13 0 -11 -15 6 -12 13 -21 29 -21 37 0 20 24 17 45 -6z m1060 -20 c4 -6 -3
-9 -16 -7 -15 1 -27 -6 -35 -22 -17 -34 1 -71 35 -71 23 -1 24 -2 8 -11 -10
-6 -25 -8 -33 -5 -9 3 -28 -9 -49 -31 -19 -21 -35 -33 -35 -28 0 6 13 23 30
38 26 25 29 33 24 67 -8 47 9 80 41 80 13 0 27 -4 30 -10z m-3358 -32 c-3 -7
-5 -2 -5 12 0 14 2 19 5 13 2 -7 2 -19 0 -25z m2286 -34 c-5 -13 -9 -13 -29 1
-13 8 -24 11 -24 6 0 -5 5 -13 10 -16 12 -8 13 -25 2 -25 -5 0 -14 11 -20 24
-10 21 -8 26 8 31 11 4 20 11 20 17 0 6 9 3 19 -6 11 -10 17 -24 14 -32z m-93
11 c0 -12 -29 -3 -34 10 -4 13 -2 14 14 5 11 -6 20 -13 20 -15z m-57 2 c3 -8
1 -20 -4 -28 -6 -10 -9 -7 -9 14 0 29 5 35 13 14z m-790 -37 c3 -11 1 -18 -4
-14 -5 3 -9 12 -9 20 0 20 7 17 13 -6z m837 -1 c0 -5 -7 -9 -15 -9 -8 0 -15 7
-15 15 0 9 6 12 15 9 8 -4 15 -10 15 -15z m30 0 c0 -11 -4 -17 -10 -14 -5 3
-10 13 -10 21 0 8 5 14 10 14 6 0 10 -9 10 -21z m-400 -9 c-6 -11 -13 -20 -16
-20 -2 0 0 9 6 20 6 11 13 20 16 20 2 0 0 -9 -6 -20z m1294 -17 c4 -10 4 -14
0 -10 -4 4 -14 1 -22 -6 -13 -11 -14 -9 -1 11 17 26 15 26 23 5z m337 -53 c5
0 9 5 9 10 0 6 5 10 10 10 16 0 11 -17 -6 -24 -17 -7 -84 31 -84 47 0 5 14 -3
31 -17 17 -14 35 -26 40 -26z m879 -6 c0 -14 -3 -14 -15 -4 -8 7 -15 14 -15
16 0 2 7 4 15 4 8 0 15 -7 15 -16z m-3422 -25 c101 -6 197 -9 213 -5 21 4 29
2 27 -6 -3 -8 -48 -11 -153 -9 -82 1 -153 5 -157 7 -4 3 -79 7 -166 9 -86 2
-168 8 -182 13 -29 12 133 8 418 -9z m1290 -40 c-3 -8 -7 -3 -11 10 -4 17 -3
21 5 13 5 -5 8 -16 6 -23z m42 -9 c0 -5 -5 -10 -11 -10 -5 0 -7 5 -4 10 3 6 8
10 11 10 2 0 4 -4 4 -10z m2236 -14 c3 -9 12 -16 20 -16 8 0 14 -4 14 -8 0
-17 -56 -35 -113 -38 -68 -3 -89 -14 -31 -15 21 0 33 -3 26 -6 -21 -8 -107 7
-92 17 9 6 7 10 -10 15 -21 7 -19 9 26 34 59 32 151 41 160 17z m157 -6 c3
-11 1 -23 -4 -26 -5 -3 -9 6 -9 20 0 31 6 34 13 6z m-4078 -14 c29 -12 35 -20
35 -45 0 -34 -16 -46 -72 -54 -37 -5 -38 -4 -43 32 -14 85 -14 81 17 81 16 0
44 -7 63 -14z m382 3 c29 -11 43 -26 43 -46 0 -20 -28 -15 -40 7 -27 50 -88
-1 -76 -64 8 -41 34 -53 77 -36 37 16 48 6 24 -20 -21 -23 -79 -27 -119 -9
-14 7 -32 27 -41 46 -21 44 -6 86 39 114 36 22 53 23 93 8z m-196 -66 c16 -38
34 -76 39 -85 15 -27 14 -28 -39 -28 -48 0 -50 1 -48 28 2 23 -2 27 -27 30
-27 3 -29 2 -23 -27 6 -29 5 -31 -24 -31 -26 0 -30 3 -24 18 4 9 15 40 25 69
28 79 38 93 66 93 22 0 30 -10 55 -67z m367 43 c3 -4 1 -11 -6 -15 -7 -4 -14
-21 -16 -38 -5 -35 -28 -84 -48 -101 -15 -12 -58 -5 -58 9 0 5 4 9 9 9 8 0 33
116 30 137 -1 4 -1 11 0 14 1 8 79 -6 89 -15z m-1098 -76 c8 -5 11 -10 5 -10
-5 0 -17 5 -25 10 -8 5 -10 10 -5 10 6 0 17 -5 25 -10z m1305 -20 c-3 -5 -12
-10 -20 -10 -21 0 -218 -81 -237 -98 -10 -8 -18 -10 -18 -4 0 13 53 52 72 52
7 1 49 16 93 35 80 34 121 44 110 25z m100 -42 l16 -33 -21 24 c-11 13 -20 27
-20 32 0 18 10 8 25 -23z m-50 -6 c-3 -3 -11 0 -18 7 -9 10 -8 11 6 5 10 -3
15 -9 12 -12z m40 -22 c3 -6 -1 -7 -9 -4 -18 7 -21 14 -7 14 6 0 13 -4 16 -10z
m2158 -37 c-7 -2 -21 -2 -30 0 -10 3 -4 5 12 5 17 0 24 -2 18 -5z"/>
<path d="M7248 4533 c7 -3 16 -2 19 1 4 3 -2 6 -13 5 -11 0 -14 -3 -6 -6z"/>
<path d="M5105 4480 c3 -5 14 -10 23 -10 15 0 15 2 2 10 -20 13 -33 13 -25 0z"/>
<path d="M5168 4464 c-42 -7 -85 -17 -96 -23 -12 -6 -33 -12 -47 -13 -14 -1
-31 -8 -37 -15 -6 -7 -19 -13 -29 -13 -20 0 -85 -37 -112 -64 -9 -9 -22 -15
-29 -14 -6 2 -13 -1 -13 -7 -2 -18 -40 -70 -53 -73 -16 -3 -16 40 0 56 9 9 8
12 -5 12 -13 0 -16 -11 -16 -63 1 -59 -25 -152 -40 -143 -8 5 -15 -76 -16
-174 0 -64 4 -84 30 -135 43 -86 49 -95 57 -95 5 0 8 -10 9 -22 0 -13 3 -17 6
-11 3 9 14 6 36 -11 18 -13 50 -29 71 -36 54 -17 174 -8 260 21 57 19 80 33
132 86 35 34 64 67 64 72 0 13 78 140 104 169 11 12 26 20 34 17 7 -2 11 -1 7
4 -5 9 47 46 74 53 19 4 46 30 54 52 4 9 11 14 17 11 5 -3 11 0 11 7 1 7 2 18
4 23 1 6 3 18 3 28 1 10 5 16 10 14 4 -3 7 21 7 54 0 32 -4 59 -9 59 -5 0 -7
3 -4 6 4 3 -7 18 -23 33 -16 16 -29 34 -29 41 0 7 -3 10 -7 7 -3 -4 -20 4 -38
17 -40 31 -178 74 -252 79 -32 2 -92 -2 -135 -9z m131 -40 c28 -36 26 -68 -5
-93 -31 -24 -48 -26 -66 -8 -10 11 -17 7 -41 -20 -34 -38 -60 -42 -81 -11 -14
19 -16 20 -16 4 0 -19 -51 -76 -69 -76 -14 0 -18 9 -26 54 -5 26 -4 37 3 33 5
-4 13 0 16 9 9 23 8 27 -8 21 -11 -4 -12 1 -7 21 11 39 47 41 78 5 22 -26 23
-26 18 -5 -8 29 18 72 44 72 20 0 40 -19 58 -59 13 -26 13 -26 7 6 -12 70 52
102 95 47z m134 -6 c26 -13 37 -25 37 -41 0 -47 -37 -59 -92 -31 -25 13 -28
18 -17 26 11 8 10 9 -4 4 -24 -8 -45 37 -27 59 14 17 45 12 103 -17z m119 -55
c34 -31 18 -82 -34 -109 -29 -15 -32 -15 -44 1 -7 10 -15 23 -17 29 -2 6 -8 8
-12 4 -5 -5 0 -17 10 -28 16 -17 16 -20 2 -20 -14 0 -47 25 -47 36 0 15 22 44
33 44 7 0 24 14 39 30 30 34 44 37 70 13z m-582 -39 c6 -14 13 -43 16 -64 6
-37 5 -39 -37 -59 -71 -35 -72 -34 -69 64 2 56 21 85 57 85 16 0 27 -8 33 -26z
m401 10 c16 -14 16 -18 4 -31 -17 -16 -20 -53 -5 -53 6 0 10 9 10 19 0 11 5
23 10 26 19 12 10 -52 -10 -70 -11 -10 -22 -26 -25 -36 -11 -35 -40 -22 -52
24 -7 23 -14 49 -18 58 -6 17 38 79 58 79 6 0 18 -7 28 -16z m253 -30 c21 -20
21 -92 0 -144 -17 -42 -31 -50 -40 -25 -10 24 -24 17 -24 -11 0 -29 -49 -84
-74 -84 -10 0 -19 12 -23 30 -5 28 -7 29 -23 15 -9 -8 -28 -15 -43 -15 -22 0
-27 6 -33 36 -9 49 10 107 41 124 22 12 27 11 46 -6 18 -16 20 -27 16 -69 -2
-27 -2 -42 0 -32 6 24 33 22 33 -3 0 -11 4 -20 10 -20 6 0 6 9 0 25 -10 27 -2
33 18 13 6 -6 15 -9 18 -5 10 10 -6 58 -19 56 -40 -5 -53 22 -19 40 24 13 41
1 52 -35 9 -26 9 -24 5 13 -5 43 8 92 28 105 15 10 13 10 31 -8z m-353 -42
c24 -63 23 -78 -11 -111 -18 -17 -36 -31 -40 -31 -18 0 -29 30 -36 92 -6 60
-5 66 16 81 29 20 56 8 71 -31z m-409 11 c6 -30 -11 -105 -29 -125 -17 -19
-58 -24 -80 -10 -15 9 16 73 59 122 30 34 45 38 50 13z m288 -33 c30 -30 27
-90 -6 -129 -32 -38 -58 -39 -79 -3 -15 25 -16 25 -11 3 6 -32 -33 -71 -73
-71 -33 0 -36 5 -46 87 -6 49 -5 53 18 64 35 16 74 4 91 -29 14 -27 14 -26 13
21 -2 38 2 52 17 63 27 19 52 18 76 -6z m-242 -79 c7 -4 16 -33 19 -65 5 -49
3 -60 -16 -80 -32 -34 -58 -38 -76 -13 -24 35 -19 101 11 136 27 32 40 37 62
22z m426 -17 c9 -8 16 -24 16 -34 0 -10 3 -25 6 -33 5 -14 -49 -87 -65 -87
-15 0 -41 60 -41 96 0 62 48 95 84 58z m-536 -36 c19 -19 15 -128 -5 -150 -20
-22 -56 -23 -77 -2 -17 16 -22 89 -7 98 4 3 11 19 14 36 5 25 11 30 35 30 15
0 33 -5 40 -12z m418 -20 c20 -23 44 -71 44 -88 0 -11 -51 -60 -63 -60 -4 0
-16 14 -26 30 l-18 31 -5 -46 c-8 -68 -57 -109 -85 -72 -16 20 -42 127 -36
145 15 40 64 43 98 6 l24 -25 -11 35 c-9 27 -8 39 2 51 18 22 53 19 76 -7z
m218 -43 c13 -35 -50 -135 -86 -135 -22 0 -47 26 -48 48 0 21 61 91 84 95 39
8 44 7 50 -8z m-450 -27 c27 -12 46 -58 46 -114 0 -29 -30 -74 -50 -74 -33 0
-71 100 -50 133 7 12 7 17 1 12 -15 -9 -14 28 1 43 15 15 21 15 52 0z m-85
-74 c28 -36 29 -112 1 -147 -18 -23 -24 -25 -50 -15 -37 12 -45 28 -54 93 -4
38 -2 56 10 73 22 31 67 29 93 -4z m409 -36 c22 -42 23 -51 12 -78 -16 -38
-36 -38 -77 2 -37 36 -44 80 -16 110 27 30 54 18 81 -34z m-529 -9 c25 -72 3
-165 -31 -131 -9 9 -8 12 5 12 9 0 17 5 17 11 0 6 -8 8 -20 4 -16 -5 -21 2
-35 50 -19 63 -11 85 30 85 17 0 26 -9 34 -31z m427 -46 c42 -45 45 -89 11
-129 -39 -45 -79 -11 -96 80 -8 41 -6 51 10 67 27 27 37 24 75 -18z m-107 -28
c8 -17 15 -56 15 -88 1 -47 -3 -61 -18 -73 -11 -8 -23 -14 -27 -14 -21 0 -37
35 -43 95 -5 53 -3 72 9 92 21 31 46 26 64 -12z m-101 -17 c15 -15 16 -112 2
-139 -13 -23 -47 -25 -72 -2 -20 18 -25 101 -8 134 12 22 59 26 78 7z m-126
-50 c18 -15 40 -96 27 -104 -17 -10 -49 17 -49 41 0 13 -5 27 -10 30 -7 4 -9
-2 -4 -19 4 -16 2 -26 -5 -26 -6 0 -11 7 -11 16 0 8 -5 12 -11 8 -18 -11 -28
17 -16 43 12 26 53 32 79 11z"/>
<path d="M5156 4381 c-4 -6 -2 -11 4 -11 6 0 8 -4 5 -10 -3 -5 -1 -10 4 -10
13 0 14 10 2 29 -6 9 -11 10 -15 2z"/>
<path d="M5100 4370 c0 -5 5 -10 11 -10 6 0 8 -7 4 -17 -4 -13 -3 -15 5 -7 6
6 8 18 4 27 -7 18 -24 23 -24 7z"/>
<path d="M5250 4360 c0 -5 5 -10 10 -10 6 0 10 5 10 10 0 6 -4 10 -10 10 -5 0
-10 -4 -10 -10z"/>
<path d="M5053 4343 c4 -6 -2 -13 -13 -16 -24 -6 -28 -47 -4 -47 14 0 14 3 4
15 -10 13 -9 15 9 15 22 0 29 24 9 36 -6 4 -8 3 -5 -3z"/>
<path d="M5130 4295 c0 -9 5 -15 11 -13 6 2 11 8 11 13 0 5 -5 11 -11 13 -6 2
-11 -4 -11 -13z"/>
<path d="M5370 4401 c0 -6 4 -11 8 -11 5 0 18 -9 31 -21 14 -13 28 -18 39 -14
13 5 10 10 -17 21 -19 8 -41 19 -48 26 -9 7 -13 7 -13 -1z"/>
<path d="M5486 4291 c-12 -5 -15 -10 -9 -14 6 -4 16 0 23 8 14 17 13 17 -14 6z"/>
<path d="M4896 4305 c-9 -26 -7 -32 5 -12 6 10 9 21 6 23 -2 3 -7 -2 -11 -11z"/>
<path d="M4921 4273 c-1 -13 4 -23 9 -23 6 0 10 -5 10 -11 0 -5 -4 -7 -10 -4
-5 3 -18 1 -27 -4 -16 -9 -15 -10 7 -10 14 0 34 4 44 8 18 7 18 8 3 14 -10 4
-22 17 -27 29 l-9 23 0 -22z"/>
<path d="M5303 4284 c0 -25 11 -32 22 -14 3 6 0 17 -8 25 -13 12 -14 11 -14
-11z"/>
<path d="M5327 4224 c-11 -11 -8 -44 3 -44 15 0 24 30 13 41 -5 5 -12 6 -16 3z"/>
<path d="M5596 4233 c-6 -14 -5 -15 5 -6 7 7 10 15 7 18 -3 3 -9 -2 -12 -12z"/>
<path d="M5595 4200 c-3 -5 -1 -10 4 -10 6 0 11 5 11 10 0 6 -2 10 -4 10 -3 0
-8 -4 -11 -10z"/>
<path d="M5407 4173 c-9 -9 -9 -63 1 -63 4 0 7 16 7 35 0 19 0 35 -1 35 0 0
-4 -3 -7 -7z"/>
<path d="M5370 4114 c0 -19 28 -36 50 -29 11 3 20 11 20 16 0 5 -9 4 -20 -3
-16 -11 -22 -9 -34 7 -9 11 -16 15 -16 9z"/>
<path d="M5490 4080 c-13 -8 -13 -10 2 -10 9 0 20 5 23 10 8 13 -5 13 -25 0z"/>
<path d="M5220 4198 c0 -9 5 -20 11 -23 17 -11 18 -2 3 19 -12 17 -14 17 -14
4z"/>
<path d="M4790 4220 c0 -5 5 -10 10 -10 6 0 10 5 10 10 0 6 -4 10 -10 10 -5 0
-10 -4 -10 -10z"/>
<path d="M4788 4153 c7 -3 16 -2 19 1 4 3 -2 6 -13 5 -11 0 -14 -3 -6 -6z"/>
<path d="M5098 4195 c-3 -14 -1 -25 3 -25 5 0 9 11 9 25 0 14 -2 25 -4 25 -2
0 -6 -11 -8 -25z"/>
<path d="M5130 4209 c0 -5 5 -7 10 -4 6 3 10 8 10 11 0 2 -4 4 -10 4 -5 0 -10
-5 -10 -11z"/>
<path d="M5090 4147 c-20 -16 -14 -47 10 -47 27 0 47 28 30 43 -10 9 -11 9 -6
-1 4 -7 1 -15 -9 -18 -21 -8 -33 5 -15 16 8 5 12 11 10 14 -3 2 -12 -1 -20 -7z"/>
<path d="M5008 4133 c6 -2 18 -2 25 0 6 3 1 5 -13 5 -14 0 -19 -2 -12 -5z"/>
<path d="M4980 4110 c0 -7 8 -19 18 -27 15 -13 15 -14 -10 -10 -30 5 -38 -7
-12 -17 9 -4 27 1 40 9 23 15 35 33 13 20 -5 -4 -19 3 -30 16 -11 12 -19 16
-19 9z"/>
<path d="M4837 4113 c-10 -9 -9 -43 1 -43 5 0 17 -7 28 -15 16 -12 16 -14 2
-9 -11 4 -20 0 -24 -10 -9 -25 -1 -28 35 -13 31 13 31 13 11 32 -11 10 -20 24
-20 30 0 16 -25 37 -33 28z"/>
<path d="M4886 4111 c-4 -5 -3 -16 0 -25 5 -12 10 -14 20 -6 7 7 10 18 7 26
-6 16 -19 18 -27 5z"/>
<path d="M5294 4056 c1 -37 3 -43 14 -32 10 10 10 18 -1 45 l-14 33 1 -46z"/>
<path d="M5318 4093 c7 -3 16 -2 19 1 4 3 -2 6 -13 5 -11 0 -14 -3 -6 -6z"/>
<path d="M4737 4016 c-8 -53 1 -73 27 -63 20 8 21 41 2 57 -8 6 -16 21 -18 33
-2 12 -7 0 -11 -27z m33 -26 c0 -5 -4 -10 -10 -10 -5 0 -10 5 -10 10 0 6 5 10
10 10 6 0 10 -4 10 -10z"/>
<path d="M4775 4050 c-3 -5 -1 -10 4 -10 6 0 11 5 11 10 0 6 -2 10 -4 10 -3 0
-8 -4 -11 -10z"/>
<path d="M5164 4038 c-4 -6 -3 -8 3 -5 6 4 14 0 17 -9 4 -9 9 -15 11 -12 8 7
-5 38 -15 38 -5 0 -12 -5 -16 -12z"/>
<path d="M5095 4010 c-10 -16 16 -43 28 -31 11 11 2 41 -12 41 -5 0 -13 -5
-16 -10z"/>
<path d="M5042 3983 c2 -10 12 -17 21 -17 15 2 17 -3 12 -27 -7 -33 1 -53 18
-42 7 4 17 8 22 8 6 0 11 11 13 23 3 20 0 23 -18 17 -15 -5 -21 -3 -19 7 4 24
-13 48 -33 48 -13 0 -18 -6 -16 -17z"/>
<path d="M5205 3980 c-3 -6 1 -7 9 -4 18 7 21 14 7 14 -6 0 -13 -4 -16 -10z"/>
<path d="M5360 4006 c0 -2 7 -9 15 -16 13 -11 14 -10 9 4 -5 14 -24 23 -24 12z"/>
<path d="M5330 3960 c0 -5 5 -10 10 -10 6 0 10 5 10 10 0 6 -4 10 -10 10 -5 0
-10 -4 -10 -10z"/>
<path d="M4975 3990 c-3 -5 -1 -10 4 -10 6 0 11 5 11 10 0 6 -2 10 -4 10 -3 0
-8 -4 -11 -10z"/>
<path d="M4945 3949 c-5 -7 -4 -10 3 -5 6 3 13 -3 17 -14 3 -11 11 -20 16 -20
14 0 11 9 -10 31 -14 15 -21 17 -26 8z"/>
<path d="M5011 3904 c-2 -31 -33 -57 -51 -41 -12 10 -12 9 -1 -5 23 -31 69 7
58 49 -4 15 -5 15 -6 -3z"/>
<path d="M4944 3891 c3 -5 15 -7 26 -4 28 7 25 13 -6 13 -14 0 -23 -4 -20 -9z"/>
<path d="M4848 3863 c-3 -13 -2 -26 3 -29 6 -3 5 -11 -2 -20 -13 -16 -1 -18
20 -5 11 7 12 13 4 23 -6 7 -13 22 -15 33 -4 19 -4 19 -10 -2z"/>
<path d="M5251 3898 c-1 -4 4 -19 11 -33 11 -25 28 -34 28 -15 0 6 -4 10 -8
10 -5 0 -14 10 -20 23 -6 12 -11 19 -11 15z"/>
<path d="M4736 3862 c-7 -11 4 -52 13 -52 4 0 6 14 3 30 -4 31 -7 35 -16 22z"/>
<path d="M5190 3831 c0 -6 4 -13 10 -16 6 -3 7 1 4 9 -7 18 -14 21 -14 7z"/>
<path d="M5171 3783 c-1 -13 -6 -23 -11 -23 -7 0 -7 -7 0 -21 11 -20 13 -20
31 -3 16 14 17 19 5 28 -8 6 -16 18 -19 26 -4 10 -6 7 -6 -7z m14 -32 c3 -5 1
-12 -5 -16 -5 -3 -10 1 -10 9 0 18 6 21 15 7z"/>
<path d="M5030 3790 c0 -5 5 -10 11 -10 5 0 7 5 4 10 -3 6 -8 10 -11 10 -2 0
-4 -4 -4 -10z"/>
<path d="M5056 3772 c-4 -8 -1 -23 9 -39 9 -14 12 -22 6 -19 -6 4 -11 0 -11
-9 0 -9 4 -13 10 -10 6 3 7 -1 4 -9 -3 -9 -1 -16 4 -16 19 0 25 40 9 58 -8 9
-17 26 -19 37 -2 15 -6 17 -12 7z"/>
<path d="M4957 3743 c-10 -9 -8 -43 2 -43 5 0 9 11 9 25 0 27 -1 28 -11 18z"/>
<path d="M4980 3690 c-8 -5 -23 -7 -34 -4 -12 4 -16 2 -12 -5 9 -14 53 -14 61
0 10 15 2 19 -15 9z"/>
<path d="M4860 3710 c0 -5 5 -10 10 -10 6 0 10 5 10 10 0 6 -4 10 -10 10 -5 0
-10 -4 -10 -10z"/>
<path d="M4850 4410 c0 -5 5 -10 10 -10 6 0 10 5 10 10 0 6 -4 10 -10 10 -5 0
-10 -4 -10 -10z"/>
<path d="M5702 4260 c0 -14 2 -19 5 -12 2 6 2 18 0 25 -3 6 -5 1 -5 -13z"/>
<path d="M5667 4072 c8 -5 -1 -8 -22 -8 -19 0 -42 -8 -53 -17 -10 -9 -22 -14
-25 -10 -4 3 -7 -4 -7 -16 0 -20 1 -21 16 -7 8 9 21 16 27 15 9 0 8 -2 0 -6
-7 -2 -13 -11 -13 -19 0 -13 -14 -18 -47 -17 -7 1 -10 -3 -7 -8 5 -8 -9 -13
-27 -11 -11 2 -32 -57 -26 -72 3 -7 27 -19 54 -25 57 -14 171 -1 209 24 25 16
31 39 13 50 -6 4 -8 13 -5 20 2 7 -1 12 -7 11 -18 -2 -106 38 -111 49 -2 6 4
11 14 11 10 0 16 -4 13 -9 -2 -4 6 -5 20 -2 14 4 28 2 31 -4 10 -15 26 -14 26
2 0 8 -11 19 -25 25 -14 6 -25 16 -25 22 0 5 -8 10 -17 10 -13 0 -14 -3 -6 -8z
m49 -118 c19 -9 33 -22 31 -28 -6 -20 -51 -36 -99 -36 l-48 0 0 40 0 40 41 0
c23 0 56 -7 75 -16z m-156 -14 c0 -5 -4 -10 -10 -10 -5 0 -10 5 -10 10 0 6 5
10 10 10 6 0 10 -4 10 -10z"/>
<path d="M5516 4003 c-6 -14 -5 -15 5 -6 7 7 10 15 7 18 -3 3 -9 -2 -12 -12z"/>
<path d="M5745 3729 c-10 -30 9 -45 37 -31 20 10 21 11 3 9 -15 -1 -19 3 -18
21 3 28 -13 29 -22 1z"/>
<path d="M5522 3640 c0 -14 2 -19 5 -12 2 6 2 18 0 25 -3 6 -5 1 -5 -13z"/>
<path d="M5600 3544 c0 -8 5 -12 10 -9 6 4 8 11 5 16 -9 14 -15 11 -15 -7z"/>
<path d="M5461 3454 c0 -11 3 -14 6 -6 3 7 2 16 -1 19 -3 4 -6 -2 -5 -13z"/>
<path d="M5560 3440 c0 -5 5 -10 10 -10 6 0 10 5 10 10 0 6 -4 10 -10 10 -5 0
-10 -4 -10 -10z"/>
<path d="M5730 3408 c0 -19 2 -20 10 -8 13 19 13 30 0 30 -5 0 -10 -10 -10
-22z"/>
<path d="M5556 3321 c-3 -5 1 -11 9 -14 9 -4 12 -1 8 9 -6 16 -10 17 -17 5z"/>
<path d="M5670 3294 c0 -8 5 -12 10 -9 6 4 8 11 5 16 -9 14 -15 11 -15 -7z"/>
<path d="M998 4283 c7 -3 16 -2 19 1 4 3 -2 6 -13 5 -11 0 -14 -3 -6 -6z"/>
<path d="M1125 4250 c-3 -6 1 -7 9 -4 18 7 21 14 7 14 -6 0 -13 -4 -16 -10z"/>
<path d="M1206 4176 c10 -8 21 -12 24 -10 5 6 -21 24 -34 24 -6 0 -1 -6 10
-14z"/>
<path d="M1246 4171 c-4 -7 -5 -15 -2 -18 9 -9 19 4 14 18 -4 11 -6 11 -12 0z"/>
<path d="M1010 4140 c0 -5 5 -10 11 -10 5 0 7 5 4 10 -3 6 -8 10 -11 10 -2 0
-4 -4 -4 -10z"/>
<path d="M1260 4140 c-9 -6 -10 -10 -3 -10 6 0 15 5 18 10 8 12 4 12 -15 0z"/>
<path d="M1065 4090 c3 -5 8 -10 11 -10 2 0 4 5 4 10 0 6 -5 10 -11 10 -5 0
-7 -4 -4 -10z"/>
<path d="M459 3973 c-13 -16 -12 -17 4 -4 9 7 17 15 17 17 0 8 -8 3 -21 -13z"/>
<path d="M371 3894 c0 -11 3 -14 6 -6 3 7 2 16 -1 19 -3 4 -6 -2 -5 -13z"/>
<path d="M537 3882 c-16 -18 -16 -20 -2 -26 9 -3 35 -6 57 -6 32 0 39 3 36 18
-4 23 -48 29 -60 8 -5 -9 -14 -16 -21 -16 -8 0 -7 3 2 9 7 5 12 14 9 21 -2 7
-10 5 -21 -8z"/>
<path d="M659 3881 c10 -6 12 -19 7 -42 -6 -32 -6 -32 14 -14 30 27 18 65 -20
65 -13 0 -13 -2 -1 -9z"/>
<path d="M727 3842 c8 -5 3 -12 -16 -20 -34 -15 -50 -48 -40 -84 8 -29 -10
-45 -29 -26 -8 8 -14 5 -21 -13 -11 -27 -9 -33 -15 63 -2 34 -8 40 -44 44 -16
2 -41 8 -56 14 -17 6 -25 6 -21 0 5 -9 -22 -14 -62 -13 -7 1 -32 -17 -55 -39
-36 -33 -39 -38 -18 -32 14 4 33 7 43 6 9 0 15 3 12 7 -7 12 31 21 88 21 69 0
97 -30 95 -102 0 -40 -3 -48 -9 -30 -5 12 -13 22 -18 22 -6 0 -8 12 -5 28 2
15 1 33 -4 40 -16 24 -73 30 -129 13 -46 -13 -53 -19 -53 -41 1 -15 11 -32 26
-43 26 -19 78 -31 68 -16 -3 5 6 9 20 9 13 0 31 3 39 6 12 4 14 0 10 -15 -4
-15 -1 -21 11 -21 12 0 16 -11 17 -47 0 -27 2 -58 3 -70 2 -14 -2 -19 -11 -16
-7 3 -13 0 -13 -6 0 -6 -9 -11 -20 -11 -11 0 -20 -4 -20 -10 0 -5 7 -10 15
-10 18 0 20 -16 3 -23 -7 -3 -3 -6 10 -6 12 -1 22 -7 22 -16 0 -18 26 -20 36
-3 5 8 1 9 -12 4 -14 -5 -16 -4 -8 4 12 12 47 3 39 -10 -3 -5 0 -12 6 -16 7
-4 9 -3 6 3 -4 6 0 13 8 17 8 3 17 0 21 -6 4 -6 9 -7 13 0 3 5 22 17 41 27 29
15 33 15 22 2 -11 -13 -10 -15 7 -10 11 3 22 11 25 19 4 10 23 14 63 14 42 0
65 6 90 23 18 12 33 24 33 27 0 16 -88 -4 -142 -31 -9 -5 -19 -5 -22 0 -7 11
4 21 24 21 9 0 32 14 50 30 18 17 28 30 21 30 -11 0 -11 3 -2 14 11 13 15 52
11 110 -1 18 -2 18 -16 -2 -21 -30 -45 -40 -74 -31 l-25 8 25 -2 c34 -3 97 57
81 77 -6 7 -9 15 -6 18 3 3 -26 6 -64 7 -52 1 -73 -2 -85 -15 -22 -21 -30 -13
-12 12 12 15 26 18 88 18 40 0 83 -6 94 -12 16 -8 24 -8 32 0 18 18 14 27 -10
20 -16 -4 -19 -2 -13 8 5 8 4 11 -3 6 -6 -3 -13 -2 -17 4 -5 8 -99 27 -115 23
-3 -1 -14 -5 -25 -9 -18 -7 -18 -6 -6 9 7 9 25 17 40 18 l26 1 -25 8 c-34 11
-59 12 -43 2z m-223 -111 c3 -4 -6 -6 -19 -3 -14 2 -25 6 -25 8 0 8 39 4 44
-5z m338 -33 c-7 -7 -16 -7 -28 0 -14 8 -13 10 10 10 18 0 24 -4 18 -10z
m-314 -16 c-10 -2 -18 -8 -18 -14 0 -6 -2 -9 -5 -6 -12 12 7 37 23 30 16 -6
15 -7 0 -10z m144 -14 c-8 -8 -9 -4 -5 13 4 13 8 18 11 10 2 -7 -1 -18 -6 -23z
m78 22 c0 -5 -4 -10 -10 -10 -5 0 -10 5 -10 10 0 6 5 10 10 10 6 0 10 -4 10
-10z m-320 -20 c0 -5 -7 -7 -15 -4 -8 4 -12 10 -9 15 6 11 24 2 24 -11z m277
-12 c-3 -8 -6 -5 -6 6 -1 11 2 17 5 13 3 -3 4 -12 1 -19z m-143 -16 c3 -5 -1
-9 -9 -9 -8 0 -12 4 -9 9 3 4 7 8 9 8 2 0 6 -4 9 -8z m306 -2 c0 -5 -4 -10
-10 -10 -5 0 -10 5 -10 10 0 6 5 10 10 10 6 0 10 -4 10 -10z m-190 -54 c0 -2
-8 -10 -17 -17 -16 -13 -17 -12 -4 4 13 16 21 21 21 13z m-3 -61 c-7 -14 -16
-25 -20 -25 -8 0 -2 14 16 38 15 19 16 14 4 -13z m-53 -37 c8 -6 7 -8 -1 -8
-6 0 -15 5 -18 10 -4 6 -12 7 -18 3 -7 -4 -5 1 3 11 11 14 15 15 19 5 2 -8 9
-17 15 -21z"/>
<path d="M1290 3830 c0 -6 -4 -9 -9 -6 -5 3 -19 -2 -32 -12 l-22 -19 38 -6
c22 -4 44 -2 51 4 7 6 18 8 23 4 7 -4 8 2 2 17 -8 23 -51 39 -51 18z"/>
<path d="M532 3560 c0 -14 2 -19 5 -12 2 6 2 18 0 25 -3 6 -5 1 -5 -13z"/>
<path d="M1280 3462 c0 -4 10 -13 23 -21 22 -14 22 -14 3 8 -20 22 -26 25 -26
13z"/>
<path d="M905 3431 c-3 -6 -15 -11 -25 -11 -40 0 -53 -72 -20 -108 27 -29 48
-28 85 4 17 14 25 23 19 20 -12 -6 -54 29 -54 46 0 5 9 8 20 5 28 -7 30 4 4
31 -14 14 -25 19 -29 13z m-9 -56 c8 -19 -4 -35 -20 -29 -8 3 -12 14 -9 25 6
22 21 25 29 4z"/>
<path d="M967 3399 c-7 -24 -1 -39 14 -39 11 0 12 30 0 48 -6 10 -10 8 -14 -9z"/>
<path d="M698 3383 c7 -3 16 -2 19 1 4 3 -2 6 -13 5 -11 0 -14 -3 -6 -6z"/>
<path d="M3575 3960 c-3 -5 -1 -10 4 -10 6 0 11 5 11 10 0 6 -2 10 -4 10 -3 0
-8 -4 -11 -10z"/>
<path d="M3576 3931 c-4 -7 -5 -15 -2 -18 9 -9 19 4 14 18 -4 11 -6 11 -12 0z"/>
<path d="M3415 3689 c-9 -28 10 -47 32 -33 9 6 17 19 18 30 2 29 -41 31 -50 3z"/>
<path d="M7090 2736 c0 -2 7 -7 16 -10 8 -3 12 -2 9 4 -6 10 -25 14 -25 6z"/>
<path d="M7137 2733 c-4 -3 -7 -11 -7 -17 0 -6 5 -5 12 2 6 6 9 14 7 17 -3 3
-9 2 -12 -2z"/>
<path d="M3225 2320 c-3 -5 3 -10 15 -10 12 0 18 5 15 10 -3 6 -10 10 -15 10
-5 0 -12 -4 -15 -10z"/>
<path d="M3240 2250 c0 -5 5 -10 10 -10 6 0 10 5 10 10 0 6 -4 10 -10 10 -5 0
-10 -4 -10 -10z"/>
<path d="M3260 2186 c0 -9 5 -16 10 -16 6 0 10 4 10 9 0 6 -4 13 -10 16 -5 3
-10 -1 -10 -9z"/>
<path d="M3230 2172 c0 -5 9 -17 20 -27 15 -14 20 -15 20 -4 0 8 -9 20 -20 27
-11 7 -20 8 -20 4z"/>
<path d="M3446 2144 c-4 -15 -15 -34 -24 -41 -15 -13 -15 -13 4 -4 20 10 41
57 31 68 -3 2 -8 -8 -11 -23z"/>
<path d="M3280 2120 c0 -5 5 -10 10 -10 6 0 10 5 10 10 0 6 -4 10 -10 10 -5 0
-10 -4 -10 -10z"/>
<path d="M3362 2096 c7 -8 15 -12 17 -11 5 6 -10 25 -20 25 -5 0 -4 -6 3 -14z"/>
<path d="M3328 2083 c-30 -5 -39 -23 -12 -23 9 0 27 -9 41 -20 14 -11 33 -20
42 -20 11 0 5 9 -17 26 -18 14 -30 30 -27 35 4 5 5 8 3 8 -2 -1 -15 -4 -30 -6z"/>
<path d="M3141 2046 c12 -10 60 -16 54 -6 -3 5 -18 10 -32 10 -15 0 -24 -2
-22 -4z"/>
<path d="M3200 1980 c0 -5 5 -10 11 -10 5 0 7 5 4 10 -3 6 -8 10 -11 10 -2 0
-4 -4 -4 -10z"/>
<path d="M6280 1920 c-8 -5 -10 -10 -5 -10 6 0 17 5 25 10 8 5 11 10 5 10 -5
0 -17 -5 -25 -10z"/>
<path d="M6236 1837 c3 -10 9 -15 12 -12 3 3 0 11 -7 18 -10 9 -11 8 -5 -6z"/>
<path d="M6147 1803 c3 -7 1 -13 -5 -13 -6 0 -8 -10 -5 -22 4 -19 3 -21 -7 -8
-10 13 -11 12 -6 -3 3 -10 6 -25 6 -33 0 -8 4 -14 10 -14 5 0 6 7 3 17 -4 9
-2 14 3 10 6 -3 16 -2 24 3 9 5 19 5 27 -2 16 -13 28 12 20 42 -3 11 -1 20 4
20 5 0 9 5 9 10 0 7 -19 10 -44 9 -32 -2 -43 -6 -39 -16z"/>
<path d="M6370 1789 c0 -5 -5 -7 -11 -4 -7 5 -8 -5 -3 -32 4 -21 8 -40 10 -42
2 -2 19 4 38 13 19 9 43 16 53 16 12 0 25 11 32 26 11 24 10 26 -9 21 -11 -3
-23 -1 -26 4 -7 13 -84 11 -84 -2z"/>
<path d="M6521 1786 c-7 -8 -11 -34 -9 -58 3 -38 6 -43 28 -43 33 0 37 7 31
52 l-5 38 -7 -35 -6 -35 -2 35 c-2 48 -14 66 -30 46z"/>
<path d="M6270 1741 c0 -6 5 -13 10 -16 6 -3 10 1 10 9 0 9 -4 16 -10 16 -5 0
-10 -4 -10 -9z"/>
<path d="M6362 1655 c4 -16 0 -25 -11 -28 -13 -4 -13 -5 -1 -6 21 -1 63 36 55
49 -3 5 -15 10 -27 10 -16 0 -19 -5 -16 -25z"/>
<path d="M6572 1640 c0 -14 2 -19 5 -12 2 6 2 18 0 25 -3 6 -5 1 -5 -13z"/>
<path d="M6162 1630 c0 -14 2 -19 5 -12 2 6 2 18 0 25 -3 6 -5 1 -5 -13z"/>
<path d="M6141 1543 c-9 -16 -12 -16 -21 -3 -5 8 -10 10 -10 4 0 -5 7 -19 15
-30 13 -17 14 -17 15 -1 0 10 8 17 21 17 11 0 19 5 17 12 -7 20 -26 20 -37 1z"/>
<path d="M6405 1540 c-3 -5 -1 -10 4 -10 6 0 11 5 11 10 0 6 -2 10 -4 10 -3 0
-8 -4 -11 -10z"/>
<path d="M6561 1534 c0 -11 3 -14 6 -6 3 7 2 16 -1 19 -3 4 -6 -2 -5 -13z"/>
<path d="M6467 1386 c-5 -14 10 -36 25 -36 4 0 8 5 8 10 0 6 -8 10 -17 10 -14
0 -15 2 -4 9 8 5 9 11 3 15 -5 3 -12 0 -15 -8z"/>
<path d="M6510 1339 c0 -5 5 -7 10 -4 6 3 10 8 10 11 0 2 -4 4 -10 4 -5 0 -10
-5 -10 -11z"/>
<path d="M3330 1800 c0 -5 7 -10 15 -10 8 0 15 5 15 10 0 6 -7 10 -15 10 -8 0
-15 -4 -15 -10z"/>
<path d="M3365 1770 c-8 -13 15 -24 27 -12 6 6 4 11 -6 15 -8 3 -18 2 -21 -3z"/>
<path d="M3402 1719 c2 -6 8 -10 13 -10 5 0 11 4 13 10 2 6 -4 11 -13 11 -9 0
-15 -5 -13 -11z"/>
<path d="M3417 1661 c-5 -19 9 -41 25 -41 16 0 7 20 -9 21 -11 0 -13 3 -5 6
14 5 17 33 3 33 -5 0 -11 -9 -14 -19z"/>
<path d="M3090 1590 c0 -5 5 -10 10 -10 6 0 10 5 10 10 0 6 -4 10 -10 10 -5 0
-10 -4 -10 -10z"/>
<path d="M3083 1178 c-1 -10 2 -16 7 -13 9 6 15 -9 25 -69 5 -29 9 -36 16 -25
8 12 10 12 19 -1 9 -13 11 -13 20 0 15 22 12 7 -6 -36 -16 -39 -43 -66 -57
-57 -4 2 -4 9 -1 15 4 6 3 8 -3 5 -12 -8 -33 35 -33 66 0 13 -4 27 -9 33 -5 5
-12 23 -14 39 -2 17 -3 12 -2 -10 3 -54 30 -143 50 -165 9 -10 18 -31 19 -46
2 -16 4 -31 5 -33 3 -10 41 49 47 75 4 16 26 50 50 76 24 25 46 59 50 74 8 32
-13 77 -38 82 -21 4 -48 -24 -55 -60 -8 -39 -27 -30 -33 17 -4 31 -10 40 -30
45 -21 6 -26 3 -27 -12z m134 -50 c-3 -8 -6 -5 -6 6 -1 11 2 17 5 13 3 -3 4
-12 1 -19z"/>
<path d="M3396 1161 c-20 -22 -13 -54 25 -121 l20 -35 -3 36 c-3 32 -1 35 17
31 11 -3 32 -14 47 -25 22 -16 25 -23 16 -34 -16 -19 -64 -44 -71 -36 -16 15
-16 -29 -1 -63 l16 -39 14 31 c7 18 38 53 68 79 62 53 87 108 67 152 -19 41
-67 27 -77 -23 -8 -44 -22 -40 -39 10 -8 22 -20 43 -27 47 -22 15 -54 10 -72
-10z"/>
<path d="M3071 1125 c0 -11 4 -27 9 -35 9 -13 10 -13 9 0 0 8 -4 24 -9 35 l-9
20 0 -20z"/>
<path d="M3659 995 c-19 -35 -22 -49 -13 -62 15 -25 60 -28 82 -7 16 17 16 18
0 11 -11 -4 -18 -2 -19 6 -10 102 -18 112 -50 52z"/>
<path d="M3722 1015 c0 -16 2 -22 5 -12 2 9 2 23 0 30 -3 6 -5 -1 -5 -18z"/>
<path d="M3246 938 c-21 -42 -35 -81 -32 -87 13 -20 23 -12 24 18 0 16 7 42
15 57 l14 27 11 -33 c10 -28 10 -31 -4 -26 -12 5 -15 2 -10 -10 3 -8 6 -22 6
-29 0 -19 34 -13 43 8 4 11 1 32 -8 50 -8 18 -15 48 -17 67 -3 34 -4 34 -42
-42z"/>
<path d="M3498 828 c-48 -27 -48 -38 -3 -28 40 9 67 28 59 41 -8 13 -14 11
-56 -13z"/>
<path d="M3320 751 c-9 -23 -15 -29 -21 -19 -6 9 -9 6 -9 -9 0 -28 16 -30 25
-3 8 25 22 26 28 3 4 -17 4 -17 12 1 4 10 4 21 -2 25 -6 3 -12 12 -15 20 -2 9
-9 2 -18 -18z"/>
<path d="M3414 769 c-3 -6 -15 -9 -25 -6 -22 6 -24 -3 -6 -25 11 -14 15 -12
41 13 21 21 25 29 13 29 -9 0 -19 -5 -23 -11z"/>
<path d="M4357 1496 c-4 -10 -1 -13 9 -9 15 6 19 23 5 23 -5 0 -11 -7 -14 -14z"/>
<path d="M4310 1479 c0 -5 5 -7 10 -4 6 3 10 8 10 11 0 2 -4 4 -10 4 -5 0 -10
-5 -10 -11z"/>
<path d="M6761 1541 c-9 -6 -10 -14 -5 -24 8 -14 11 -14 29 0 19 15 19 15 -5
8 -22 -7 -23 -6 -11 9 15 18 13 20 -8 7z"/>
<path d="M6902 1523 c-6 -2 -9 -9 -6 -15 4 -6 10 -5 16 3 8 11 9 11 5 -1 -2
-8 -12 -15 -23 -15 -10 0 -17 -5 -14 -10 3 -6 8 -9 13 -7 4 1 7 -6 8 -15 0
-14 2 -15 6 -3 3 8 12 23 20 32 22 25 7 44 -25 31z"/>
<path d="M6701 1414 c0 -11 3 -14 6 -6 3 7 2 16 -1 19 -3 4 -6 -2 -5 -13z"/>
<path d="M6836 1334 c-5 -14 -4 -15 9 -4 17 14 19 20 6 20 -5 0 -12 -7 -15
-16z"/>
<path d="M6799 1293 c-13 -16 -12 -17 4 -4 16 13 21 21 13 21 -2 0 -10 -8 -17
-17z"/>
<path d="M6724 1210 c0 -13 4 -16 10 -10 7 7 7 13 0 20 -6 6 -10 3 -10 -10z"/>
<path d="M6621 1167 c-6 -8 -8 -17 -4 -20 11 -12 19 -7 20 13 2 24 -1 25 -16
7z"/>
<path d="M6179 1298 c10 -14 11 -21 2 -32 -13 -16 10 -41 31 -33 7 2 21 0 31
-5 26 -13 21 -7 -30 42 -26 25 -42 37 -34 28z m41 -49 c0 -5 -4 -9 -10 -9 -5
0 -10 5 -10 11 0 5 -5 7 -12 3 -7 -4 -8 -3 -4 4 7 12 36 5 36 -9z"/>
<path d="M6569 1103 c-13 -16 -12 -17 4 -4 9 7 17 15 17 17 0 8 -8 3 -21 -13z"/>
<path d="M6542 1063 c2 -4 -1 -10 -7 -11 -17 -6 -35 -24 -56 -56 -16 -25 -14
-23 14 8 19 21 36 34 38 27 2 -6 9 -3 16 8 8 13 9 22 3 26 -6 4 -9 3 -8 -2z"/>
<path d="M6112 1108 c-7 -7 -12 -15 -12 -19 0 -11 33 -4 37 8 6 17 -12 24 -25
11z"/>
<path d="M527 263 c-4 -3 -7 -17 -7 -31 0 -21 2 -22 15 -12 8 7 15 21 15 31 0
19 -11 25 -23 12z"/>
<path d="M686 214 c-9 -22 -8 -24 9 -24 8 0 15 9 15 20 0 24 -15 27 -24 4z"/>
<path d="M2390 4586 c0 -8 51 -13 56 -5 3 5 -9 9 -25 9 -17 0 -31 -2 -31 -4z"/>
<path d="M2506 4576 c52 -23 109 -28 155 -15 24 7 54 11 67 11 12 -1 22 3 22
8 0 6 -53 10 -137 10 -125 -1 -135 -2 -107 -14z"/>
<path d="M2840 4586 c0 -9 30 -14 35 -6 4 6 -3 10 -14 10 -12 0 -21 -2 -21 -4z"/>
<path d="M4322 4574 c-7 -8 -8 -14 -2 -14 5 0 10 -4 10 -9 0 -5 -8 -8 -17 -7
-14 1 -18 -6 -16 -27 1 -15 -2 -25 -8 -22 -5 4 -9 -5 -9 -19 0 -14 5 -26 11
-26 6 0 9 -7 5 -15 -7 -18 24 -52 61 -66 28 -11 87 -19 79 -12 -2 3 11 18 30
35 19 17 34 36 34 43 0 7 6 16 13 18 9 4 9 8 -2 15 -8 6 -15 18 -16 29 -4 30
-19 58 -35 62 -72 18 -95 19 -104 3 -9 -15 -11 -15 -15 4 -5 19 -8 20 -19 8z"/>
<path d="M4556 4576 c19 -15 19 -15 -1 -31 -18 -15 -18 -16 -2 -11 10 3 21 6
23 6 2 0 4 11 4 25 0 19 -5 25 -22 25 -21 0 -21 0 -2 -14z"/>
<path d="M4566 4515 c-3 -8 -2 -25 3 -37 7 -19 9 -17 8 15 -1 41 -2 44 -11 22z"/>
<path d="M2990 4170 c-12 -8 -11 -10 8 -10 12 0 22 5 22 10 0 13 -11 13 -30 0z"/>
<path d="M3040 4170 c0 -5 4 -10 9 -10 6 0 13 5 16 10 3 6 -1 10 -9 10 -9 0
-16 -4 -16 -10z"/>
<path d="M2115 3944 c37 -64 86 -144 90 -144 1 0 5 9 8 21 3 12 3 18 0 15 -4
-3 -27 27 -53 68 -55 84 -86 113 -45 40z"/>
<path d="M2500 3720 c0 -5 5 -10 10 -10 6 0 10 5 10 10 0 6 -4 10 -10 10 -5 0
-10 -4 -10 -10z"/>
<path d="M2330 3685 c0 -8 7 -15 15 -15 8 0 15 7 15 15 0 8 -7 15 -15 15 -8 0
-15 -7 -15 -15z"/>
<path d="M2215 3610 c3 -5 13 -10 21 -10 8 0 14 5 14 10 0 6 -9 10 -21 10 -11
0 -17 -4 -14 -10z"/>
<path d="M2317 3543 c-7 -89 -26 -150 -64 -208 -32 -47 -36 -104 -10 -133 9
-10 15 -21 12 -23 -2 -3 5 -5 15 -5 25 0 25 8 0 31 -29 26 -25 56 13 106 43
57 62 126 59 218 -3 102 -18 110 -25 14z"/>
<path d="M2630 3604 c0 -9 5 -14 12 -12 18 6 21 28 4 28 -9 0 -16 -7 -16 -16z"/>
<path d="M2050 3601 c0 -6 4 -13 10 -16 6 -3 7 1 4 9 -7 18 -14 21 -14 7z"/>
<path d="M2480 3565 c0 -16 16 -20 24 -6 3 5 -1 11 -9 15 -9 3 -15 0 -15 -9z"/>
<path d="M2232 3508 c-16 -16 -15 -28 3 -28 8 0 15 9 15 20 0 23 -2 24 -18 8z"/>
<path d="M2640 3496 c0 -9 7 -16 16 -16 9 0 14 5 12 12 -6 18 -28 21 -28 4z"/>
<path d="M2782 3498 c6 -18 28 -21 28 -4 0 9 -7 16 -16 16 -9 0 -14 -5 -12
-12z"/>
<path d="M2393 3433 c-7 -2 -13 -11 -13 -18 0 -11 6 -11 30 -2 25 10 36 8 65
-7 44 -24 55 -16 19 13 -25 20 -72 26 -101 14z"/>
<path d="M2732 3408 c6 -18 28 -21 28 -4 0 9 -7 16 -16 16 -9 0 -14 -5 -12
-12z"/>
<path d="M3000 3380 c0 -5 5 -10 11 -10 5 0 7 5 4 10 -3 6 -8 10 -11 10 -2 0
-4 -4 -4 -10z"/>
<path d="M2631 3368 c0 -7 6 -46 13 -86 11 -62 11 -75 -1 -90 -14 -16 -14 -16
-9 1 3 9 1 17 -5 17 -7 0 -9 -10 -5 -25 5 -18 2 -27 -9 -31 -24 -9 -18 -24 10
-24 18 0 31 10 45 33 24 38 25 58 5 117 -8 25 -17 57 -20 73 -5 27 -25 39 -24
15z"/>
<path d="M2140 3355 c0 -8 7 -15 15 -15 8 0 15 7 15 15 0 8 -7 15 -15 15 -8 0
-15 -7 -15 -15z"/>
<path d="M2857 3324 c-8 -8 1 -24 13 -24 4 0 10 7 14 15 5 15 -14 21 -27 9z"/>
<path d="M230 3239 c0 -5 5 -7 10 -4 6 3 10 8 10 11 0 2 -4 4 -10 4 -5 0 -10
-5 -10 -11z"/>
<path d="M2500 3243 c-8 -3 -19 -12 -23 -19 -4 -8 -20 -14 -35 -14 -20 0 -23
3 -13 9 11 7 8 9 -10 10 -13 1 -55 4 -93 6 l-70 4 27 -24 c30 -29 37 -31 37
-10 0 8 4 15 10 15 6 0 6 -9 0 -25 -6 -15 -6 -26 0 -30 6 -4 10 -12 10 -18 0
-7 -4 -6 -11 3 -7 10 -9 11 -7 2 2 -8 6 -12 9 -10 11 6 39 -24 32 -35 -3 -6
-1 -7 5 -3 6 4 25 0 41 -9 63 -32 116 -13 151 55 13 25 25 37 34 34 10 -4 14
2 12 19 0 14 -3 24 -5 22 -2 -3 -13 2 -25 10 -21 15 -49 18 -76 8z m-6 -62
c-16 -16 -74 -18 -74 -3 0 5 13 7 29 4 16 -2 32 1 36 8 4 6 10 9 13 5 3 -3 1
-9 -4 -14z"/>
<path d="M170 3167 c-19 -25 -20 -29 -5 -17 29 22 45 38 45 44 0 14 -17 2 -40
-27z"/>
<path d="M89 3103 c-13 -15 -12 -15 9 -4 23 12 28 21 13 21 -5 0 -15 -7 -22
-17z"/>
<path d="M3590 3085 c0 -9 5 -15 11 -13 6 2 11 8 11 13 0 5 -5 11 -11 13 -6 2
-11 -4 -11 -13z"/>
<path d="M3250 3070 c0 -5 7 -10 15 -10 8 0 15 5 15 10 0 6 -7 10 -15 10 -8 0
-15 -4 -15 -10z"/>
<path d="M487 3056 c-6 -16 2 -28 14 -20 12 7 11 34 0 34 -5 0 -11 -6 -14 -14z"/>
<path d="M1820 3049 c7 -11 14 -19 16 -16 7 7 -7 37 -17 37 -6 0 -5 -9 1 -21z"/>
<path d="M4066 3049 c-26 -20 -35 -49 -16 -49 5 0 7 7 4 15 -4 9 3 19 20 26
14 7 26 16 26 21 0 12 -4 10 -34 -13z"/>
<path d="M3330 3044 c-30 -9 -73 -16 -94 -18 -38 -3 -66 -26 -31 -26 10 0 13
-5 9 -12 -5 -8 -1 -9 12 -5 12 5 8 -2 -11 -18 -36 -30 -27 -44 12 -18 64 43
84 47 253 50 91 1 166 3 167 3 1 0 -3 13 -8 29 l-10 29 -122 0 c-75 0 -143 -6
-177 -14z"/>
<path d="M4092 3001 c2 -7 7 -12 11 -12 12 1 9 15 -3 20 -7 2 -11 -2 -8 -8z"/>
<path d="M4150 2975 c0 -8 5 -15 10 -15 6 0 10 7 10 15 0 8 -4 15 -10 15 -5 0
-10 -7 -10 -15z"/>
<path d="M1928 2973 c7 -3 16 -2 19 1 4 3 -2 6 -13 5 -11 0 -14 -3 -6 -6z"/>
<path d="M2093 2963 c9 -2 23 -2 30 0 6 3 -1 5 -18 5 -16 0 -22 -2 -12 -5z"/>
<path d="M2768 2963 c6 -2 18 -2 25 0 6 3 1 5 -13 5 -14 0 -19 -2 -12 -5z"/>
<path d="M2073 2933 c15 -2 37 -2 50 0 12 2 0 4 -28 4 -27 0 -38 -2 -22 -4z"/>
<path d="M2753 2933 c15 -2 37 -2 50 0 12 2 0 4 -28 4 -27 0 -38 -2 -22 -4z"/>
<path d="M4185 2930 c3 -5 10 -10 16 -10 5 0 9 5 9 10 0 6 -7 10 -16 10 -8 0
-12 -4 -9 -10z"/>
<path d="M4210 2886 c0 -9 5 -16 10 -16 6 0 10 4 10 9 0 6 -4 13 -10 16 -5 3
-10 -1 -10 -9z"/>
<path d="M3450 2850 c0 -5 5 -10 10 -10 6 0 10 5 10 10 0 6 -4 10 -10 10 -5 0
-10 -4 -10 -10z"/>
<path d="M400 2808 c0 -36 4 -35 14 5 4 16 2 27 -4 27 -5 0 -10 -14 -10 -32z"/>
<path d="M3505 2831 c-6 -11 9 -23 19 -14 9 9 7 23 -3 23 -6 0 -12 -4 -16 -9z"/>
<path d="M3476 2822 c-3 -6 -1 -14 5 -17 14 -9 20 -2 10 14 -6 8 -11 9 -15 3z"/>
<path d="M3545 2790 c3 -5 8 -10 11 -10 2 0 4 5 4 10 0 6 -5 10 -11 10 -5 0
-7 -4 -4 -10z"/>
<path d="M152 2725 c-7 -14 -25 -34 -42 -43 -33 -19 -39 -39 -14 -49 14 -5 36
16 39 37 1 3 9 20 19 38 9 19 16 36 13 38 -2 2 -9 -7 -15 -21z"/>
<path d="M60 2729 c0 -5 -5 -7 -11 -3 -8 5 -10 -1 -6 -19 6 -22 4 -25 -16 -21
-20 4 -21 4 -2 -5 20 -10 20 -10 0 -10 -16 -1 -21 -8 -23 -33 l-2 -33 18 30
c10 17 31 36 46 44 16 9 25 20 21 29 -3 7 -5 18 -5 23 0 5 -4 9 -10 9 -5 0
-10 -5 -10 -11z"/>
<path d="M4030 2630 c0 -5 5 -10 10 -10 6 0 10 5 10 10 0 6 -4 10 -10 10 -5 0
-10 -4 -10 -10z"/>
<path d="M58 2624 c-11 -10 3 -34 19 -34 8 0 13 7 11 17 -3 18 -20 27 -30 17z"/>
<path d="M238 2574 c4 -24 6 -24 21 -9 14 14 14 17 1 25 -23 15 -28 12 -22
-16z"/>
<path d="M27 2552 c-18 -19 -27 -39 -27 -61 0 -29 2 -32 15 -21 9 7 14 18 11
25 -2 6 4 16 14 22 17 11 34 63 20 63 -3 0 -18 -13 -33 -28z"/>
<path d="M241 2514 c0 -11 3 -14 6 -6 3 7 2 16 -1 19 -3 4 -6 -2 -5 -13z"/>
<path d="M3900 2380 c-9 -6 -10 -10 -3 -10 6 0 15 5 18 10 8 12 4 12 -15 0z"/>
<path d="M4015 2320 c-10 -11 -14 -20 -9 -20 5 0 15 9 22 20 7 11 11 20 9 20
-2 0 -12 -9 -22 -20z"/>
<path d="M3905 2250 c3 -5 8 -10 11 -10 2 0 4 5 4 10 0 6 -5 10 -11 10 -5 0
-7 -4 -4 -10z"/>
<path d="M7101 2126 c-5 -6 -11 -31 -13 -56 -3 -42 -1 -45 23 -48 36 -4 49 16
42 65 -6 43 -32 63 -52 39z m29 -22 c0 -8 -4 -12 -10 -9 -5 3 -10 10 -10 16 0
5 5 9 10 9 6 0 10 -7 10 -16z m0 -54 c0 -5 -7 -10 -15 -10 -8 0 -15 5 -15 10
0 6 7 10 15 10 8 0 15 -4 15 -10z"/>
<path d="M7180 2125 c-21 -26 24 -105 60 -105 28 0 61 49 58 84 -3 30 -5 31
-55 33 -34 1 -55 -3 -63 -12z"/>
<path d="M6080 2114 c0 -8 5 -12 10 -9 6 4 10 -10 10 -34 0 -34 3 -41 19 -41
17 0 18 5 14 42 -5 31 -3 39 7 33 7 -4 16 -2 22 6 6 10 8 -1 5 -33 -4 -42 -2
-48 14 -48 13 0 19 7 19 21 0 12 5 19 13 16 6 -2 11 -11 9 -21 -2 -13 7 -16
53 -16 42 0 55 4 55 15 0 9 -6 12 -17 8 -15 -5 -16 -3 -5 8 14 16 16 43 2 34
-5 -3 -10 -1 -10 5 0 6 6 10 14 8 8 -2 15 2 15 7 1 6 -24 11 -55 13 -52 3 -55
2 -49 -17 5 -15 2 -21 -9 -21 -9 0 -16 9 -16 20 0 18 -7 20 -60 20 -48 0 -60
-3 -60 -16z m190 -34 c0 -16 -4 -30 -9 -30 -5 0 -9 14 -9 30 1 17 5 30 10 30
4 0 8 -13 8 -30z"/>
<path d="M6402 2080 c1 -33 6 -50 14 -50 7 0 15 8 17 18 4 14 5 14 6 1 1 -11
12 -16 34 -17 32 -1 32 -1 33 48 1 58 -17 67 -36 19 l-13 -31 -13 31 c-21 50
-43 40 -42 -19z"/>
<path d="M6525 2110 c-15 -16 -17 -26 -9 -48 12 -35 70 -44 92 -15 12 17 14
17 23 1 7 -12 22 -18 45 -18 46 0 66 36 40 75 -19 29 -51 32 -78 8 -17 -15
-19 -15 -36 0 -25 23 -55 21 -77 -3z m59 -15 c7 -20 -3 -45 -19 -45 -19 0 -27
17 -20 40 7 24 30 26 39 5z m111 -6 c8 -25 -7 -44 -28 -36 -10 3 -13 14 -10
31 6 31 29 34 38 5z"/>
<path d="M6734 2080 c1 -40 4 -50 18 -50 12 0 15 6 11 23 l-6 22 26 -24 c15
-14 29 -23 31 -20 2 2 6 25 8 52 5 41 3 47 -13 47 -15 0 -18 -5 -13 -32 l6
-33 -21 33 c-31 48 -48 42 -47 -18z"/>
<path d="M7264 1936 c3 -28 9 -145 12 -261 6 -221 20 -324 55 -385 l20 -35 -6
60 c-3 33 -9 96 -14 140 -5 44 -10 180 -10 301 l-1 222 -31 4 -31 5 6 -51z"/>
<path d="M644 1834 c4 -16 -1 -46 -14 -80 -11 -30 -20 -61 -20 -69 0 -18 46
-72 55 -63 4 3 -3 16 -14 27 -26 26 -26 42 -1 112 19 54 18 99 -2 99 -6 0 -7
-11 -4 -26z"/>
<path d="M760 1364 c-68 -18 -91 -37 -64 -52 14 -7 31 -6 59 5 22 8 75 16 117
17 43 0 78 4 78 8 0 15 -60 38 -97 37 -21 0 -63 -7 -93 -15z"/>
<path d="M600 1251 c0 -28 5 -53 10 -56 6 -4 10 15 10 49 0 31 -4 56 -10 56
-5 0 -10 -22 -10 -49z"/>
<path d="M770 1284 c-36 -16 -52 -33 -44 -46 3 -5 14 2 24 14 15 19 21 21 31
11 11 -11 10 -13 -4 -13 -9 0 -17 -4 -17 -9 0 -15 54 -23 82 -12 14 5 28 8 30
5 3 -2 5 3 5 11 0 10 -6 13 -19 9 -14 -4 -16 -1 -12 11 5 12 14 15 30 11 27
-7 33 8 8 18 -27 10 -77 6 -114 -10z"/>
<path d="M764 1196 c-17 -8 -34 -21 -37 -30 -8 -20 2 -20 24 0 10 9 23 13 30
8 9 -5 5 -10 -12 -17 -23 -10 -22 -10 16 -17 28 -5 49 -3 68 6 31 17 36 29 8
21 -14 -3 -18 -1 -14 9 3 8 16 14 30 14 13 0 21 4 18 10 -9 14 -95 12 -131 -4z"/>
<path d="M582 1108 c-11 -11 9 -32 55 -56 18 -10 26 -7 53 18 17 16 29 34 26
39 -4 5 -17 -1 -31 -15 -31 -30 -49 -30 -73 0 -14 18 -22 22 -30 14z"/>
<path d="M845 1100 c-3 -5 1 -10 10 -10 9 0 13 5 10 10 -3 6 -8 10 -10 10 -2
0 -7 -4 -10 -10z"/>
<path d="M470 1071 c0 -5 5 -13 10 -16 6 -3 10 -2 10 4 0 5 -4 13 -10 16 -5 3
-10 2 -10 -4z"/>
<path d="M880 1069 c0 -5 5 -7 10 -4 6 3 10 8 10 11 0 2 -4 4 -10 4 -5 0 -10
-5 -10 -11z"/>
<path d="M521 1044 c0 -11 3 -14 6 -6 3 7 2 16 -1 19 -3 4 -6 -2 -5 -13z"/>
<path d="M810 1050 c0 -5 5 -10 10 -10 6 0 10 5 10 10 0 6 -4 10 -10 10 -5 0
-10 -4 -10 -10z"/>
<path d="M450 1026 c0 -9 5 -16 10 -16 6 0 10 4 10 9 0 6 -4 13 -10 16 -5 3
-10 -1 -10 -9z"/>
<path d="M601 996 c-6 -7 -7 -16 -3 -21 4 -4 -3 -4 -15 -1 -33 10 -28 -4 13
-42 31 -29 42 -33 82 -30 37 2 49 8 57 25 5 12 19 26 32 32 34 15 29 32 -7 24
-23 -4 -30 -2 -28 8 4 19 -116 24 -131 5z m72 -23 c-7 -2 -19 -2 -25 0 -7 3
-2 5 12 5 14 0 19 -2 13 -5z"/>
<path d="M4858 833 c7 -3 16 -2 19 1 4 3 -2 6 -13 5 -11 0 -14 -3 -6 -6z"/>
<path d="M424 789 c9 -61 -6 -122 -54 -226 -57 -121 -63 -155 -56 -286 10
-194 18 -277 27 -277 13 0 11 74 -7 196 -23 165 -16 203 70 402 40 92 52 200
27 225 -11 10 -12 3 -7 -34z"/>
<path d="M5235 443 c-61 -8 -137 -35 -186 -65 -68 -42 -54 -48 23 -9 59 29
125 48 243 69 l50 10 -50 -1 c-27 0 -63 -2 -80 -4z"/>
<path d="M5540 375 c19 -14 36 -25 39 -25 11 1 -50 50 -62 50 -6 0 4 -11 23
-25z"/>
<path d="M5600 326 c0 -2 8 -10 18 -17 15 -13 16 -12 3 4 -13 16 -21 21 -21
13z"/>
<path d="M5262 199 c-13 -5 -35 -6 -48 -3 -15 4 -24 2 -24 -6 0 -6 -4 -8 -10
-5 -5 3 -10 2 -10 -3 0 -5 -9 -12 -21 -15 -14 -4 -18 -10 -13 -19 6 -9 3 -9
-10 1 -14 12 -19 12 -26 1 -5 -8 -18 -11 -37 -7 -21 4 -34 0 -51 -18 -30 -31
-28 -37 11 -30 37 7 113 -17 109 -35 -1 -6 2 -9 8 -5 5 3 25 -5 43 -19 51 -39
97 -41 218 -12 115 28 169 32 200 15 11 -6 25 -9 32 -6 6 2 -12 14 -41 27 -29
13 -52 27 -52 31 0 9 -197 105 -230 112 -14 3 -35 1 -48 -4z m167 -87 c14 -10
26 -23 28 -28 4 -13 -37 -32 -88 -40 l-40 -7 7 29 c6 26 5 27 -8 16 -14 -11
-19 -9 -32 10 -23 32 -20 48 9 48 14 0 25 5 25 10 0 12 64 -13 99 -38z m-259
-14 l-1 -43 -24 30 -24 30 22 12 c12 7 23 12 25 13 1 0 2 -19 2 -42z m28 -23
c-3 -3 -9 2 -12 12 -6 14 -5 15 5 6 7 -7 10 -15 7 -18z"/>
<path d="M3350 155 c0 -13 35 -75 42 -75 5 0 -1 18 -12 40 -18 35 -30 49 -30
35z"/>
</g>
</svg>
